<svg width="101" height="101" viewBox="0 0 101 101" fill="none" xmlns="http://www.w3.org/2000/svg">
<circle cx="50.5" cy="50.5" r="50.5" fill="#0096D1"/>
<path d="M78.242 53.6249H52.5066L69.6458 71.527C70.3009 72.2112 71.3789 72.2667 72.0524 71.604C76.2497 67.4737 79.1367 61.9059 79.9838 55.647C80.1291 54.5754 79.2777 53.6249 78.242 53.6249ZM76.5251 46.2842C75.6315 32.7515 65.2783 21.9375 52.3222 21.0041C51.3331 20.9327 50.5001 21.8039 50.5001 22.8393V48.1874H74.7692C75.7605 48.1874 76.5935 47.3174 76.5251 46.2842ZM45.2943 53.6249V26.7441C45.2943 25.6623 44.3843 24.773 43.3594 24.9248C30.4348 26.8325 20.5556 38.6263 21.0154 52.7606C21.4883 67.2766 33.4542 79.1803 47.3582 78.9979C52.8243 78.9266 57.8751 77.0869 62.0279 74.0101C62.8847 73.3757 62.9411 72.0582 62.1982 71.2823L45.2943 53.6249Z" fill="white"/>
</svg>
