<svg width="32" height="43" viewBox="0 0 32 43" fill="none" xmlns="http://www.w3.org/2000/svg">
<path d="M10.8052 2.40233C11.2748 0.80614 13.35 0.405636 14.3798 1.71246L20.7508 9.79395C20.9741 10.0769 21.2676 10.2959 21.6022 10.4292L29.8347 13.7069C31.2237 14.2601 31.5723 16.0667 30.4889 17.097L24.2254 23.0526C23.8663 23.3937 23.6433 23.8534 23.5969 24.3463L22.0585 40.7251C21.8669 42.7645 19.1326 43.2923 18.1958 41.4706L10.6729 26.8406C10.4464 26.4004 10.0683 26.0567 9.60805 25.8737L1.57854 22.6766C0.189144 22.1235 -0.159508 20.3169 0.924275 19.2865L7.34535 13.1807C7.60671 12.9323 7.7977 12.6199 7.89919 12.2742L10.8052 2.40233Z" fill="#0096D1"/>
</svg>
