<svg width="425" height="64" viewBox="0 0 425 64" fill="none" xmlns="http://www.w3.org/2000/svg">
<rect width="425" height="64" rx="32" fill="#E12B8F"/>
<path d="M69.84 20.94L64.35 42H58.14L54.78 28.14L51.3 42H45.09L39.75 20.94H45.24L48.27 36.27L52.02 20.94H57.66L61.26 36.27L64.32 20.94H69.84ZM77.5427 25.05V29.31H84.4127V33.27H77.5427V37.89H85.3127V42H72.4127V20.94H85.3127V25.05H77.5427ZM94.1306 31.44C94.1306 29.36 94.5806 27.51 95.4806 25.89C96.3806 24.25 97.6306 22.98 99.2306 22.08C100.851 21.16 102.681 20.7 104.721 20.7C107.221 20.7 109.361 21.36 111.141 22.68C112.921 24 114.111 25.8 114.711 28.08H109.071C108.651 27.2 108.051 26.53 107.271 26.07C106.511 25.61 105.641 25.38 104.661 25.38C103.081 25.38 101.801 25.93 100.821 27.03C99.8406 28.13 99.3506 29.6 99.3506 31.44C99.3506 33.28 99.8406 34.75 100.821 35.85C101.801 36.95 103.081 37.5 104.661 37.5C105.641 37.5 106.511 37.27 107.271 36.81C108.051 36.35 108.651 35.68 109.071 34.8H114.711C114.111 37.08 112.921 38.88 111.141 40.2C109.361 41.5 107.221 42.15 104.721 42.15C102.681 42.15 100.851 41.7 99.2306 40.8C97.6306 39.88 96.3806 38.61 95.4806 36.99C94.5806 35.37 94.1306 33.52 94.1306 31.44ZM130.962 38.28H123.102L121.842 42H116.472L124.092 20.94H130.032L137.652 42H132.222L130.962 38.28ZM129.642 34.32L127.032 26.61L124.452 34.32H129.642ZM158.811 42H153.681L145.101 29.01V42H139.971V20.94H145.101L153.681 33.99V20.94H158.811V42ZM187.127 20.94V42H181.997V33.33H174.017V42H168.887V20.94H174.017V29.19H181.997V20.94H187.127ZM195.961 25.05V29.31H202.831V33.27H195.961V37.89H203.731V42H190.831V20.94H203.731V25.05H195.961ZM212.191 38.04H218.911V42H207.061V20.94H212.191V38.04ZM237.408 27.72C237.408 28.94 237.128 30.06 236.568 31.08C236.008 32.08 235.148 32.89 233.988 33.51C232.828 34.13 231.388 34.44 229.668 34.44H226.488V42H221.358V20.94H229.668C231.348 20.94 232.768 21.23 233.928 21.81C235.088 22.39 235.958 23.19 236.538 24.21C237.118 25.23 237.408 26.4 237.408 27.72ZM229.278 30.36C230.258 30.36 230.988 30.13 231.468 29.67C231.948 29.21 232.188 28.56 232.188 27.72C232.188 26.88 231.948 26.23 231.468 25.77C230.988 25.31 230.258 25.08 229.278 25.08H226.488V30.36H229.278ZM264.496 20.94L257.206 35.04V42H252.076V35.04L244.786 20.94H250.606L254.686 29.76L258.736 20.94H264.496ZM276.523 42.21C274.543 42.21 272.723 41.75 271.063 40.83C269.423 39.91 268.113 38.63 267.133 36.99C266.173 35.33 265.693 33.47 265.693 31.41C265.693 29.35 266.173 27.5 267.133 25.86C268.113 24.22 269.423 22.94 271.063 22.02C272.723 21.1 274.543 20.64 276.523 20.64C278.503 20.64 280.313 21.1 281.953 22.02C283.613 22.94 284.913 24.22 285.853 25.86C286.813 27.5 287.293 29.35 287.293 31.41C287.293 33.47 286.813 35.33 285.853 36.99C284.893 38.63 283.593 39.91 281.953 40.83C280.313 41.75 278.503 42.21 276.523 42.21ZM276.523 37.53C278.203 37.53 279.543 36.97 280.543 35.85C281.563 34.73 282.073 33.25 282.073 31.41C282.073 29.55 281.563 28.07 280.543 26.97C279.543 25.85 278.203 25.29 276.523 25.29C274.823 25.29 273.463 25.84 272.443 26.94C271.443 28.04 270.943 29.53 270.943 31.41C270.943 33.27 271.443 34.76 272.443 35.88C273.463 36.98 274.823 37.53 276.523 37.53ZM295.187 20.94V33.54C295.187 34.8 295.497 35.77 296.117 36.45C296.737 37.13 297.647 37.47 298.847 37.47C300.047 37.47 300.967 37.13 301.607 36.45C302.247 35.77 302.567 34.8 302.567 33.54V20.94H307.697V33.51C307.697 35.39 307.297 36.98 306.497 38.28C305.697 39.58 304.617 40.56 303.257 41.22C301.917 41.88 300.417 42.21 298.757 42.21C297.097 42.21 295.607 41.89 294.287 41.25C292.987 40.59 291.957 39.61 291.197 38.31C290.437 36.99 290.057 35.39 290.057 33.51V20.94H295.187ZM318.049 20.19L317.449 34.56H313.099L312.499 20.19H318.049ZM315.349 42.24C314.449 42.24 313.709 41.98 313.129 41.46C312.569 40.92 312.289 40.26 312.289 39.48C312.289 38.68 312.569 38.01 313.129 37.47C313.709 36.93 314.449 36.66 315.349 36.66C316.229 36.66 316.949 36.93 317.509 37.47C318.089 38.01 318.379 38.68 318.379 39.48C318.379 40.26 318.089 40.92 317.509 41.46C316.949 41.98 316.229 42.24 315.349 42.24Z" fill="white"/>
<path d="M353.279 31.5182L343.507 21.6236C342.831 20.9397 342.831 19.8338 343.507 19.1572L345.13 17.5129C345.806 16.829 346.898 16.829 347.566 17.5129L354.493 24.5265L361.419 17.5129C362.095 16.829 363.187 16.829 363.855 17.5129L365.493 19.1499C366.169 19.8338 366.169 20.9397 365.493 21.6163L355.721 31.5109C355.046 32.2021 353.954 32.2021 353.279 31.5182ZM355.721 45.4871L365.493 35.5925C366.169 34.9086 366.169 33.8027 365.493 33.1261L363.87 31.4818C363.194 30.7979 362.102 30.7979 361.434 31.4818L354.507 38.4954L347.581 31.4818C346.905 30.7979 345.813 30.7979 345.145 31.4818L343.521 33.1261C342.846 33.81 342.846 34.9158 343.521 35.5925L353.293 45.4871C353.954 46.171 355.046 46.171 355.721 45.4871Z" fill="white"/>
</svg>
