<svg width="538" height="404" viewBox="0 0 538 404" fill="none" xmlns="http://www.w3.org/2000/svg">
<path fill-rule="evenodd" clip-rule="evenodd" d="M513.045 86.9603H281.027C278.13 86.9603 275.781 89.3079 275.781 92.2035V245.3C275.781 248.194 278.13 250.543 281.027 250.543H513.045C515.939 250.543 518.288 248.194 518.288 245.3V92.2035C518.288 89.3079 515.939 86.9603 513.045 86.9603ZM281.027 85.5182C277.334 85.5182 274.339 88.5114 274.339 92.2035V245.3C274.339 248.992 277.334 251.985 281.027 251.985H513.045C516.737 251.985 519.73 248.992 519.73 245.3V92.2035C519.73 88.5114 516.737 85.5182 513.045 85.5182H281.027Z" fill="#0096D1"/>
<path d="M274.339 223.238H519.73V245.3C519.73 248.992 516.737 251.985 513.045 251.985H281.027C277.334 251.985 274.339 248.992 274.339 245.3V223.238Z" fill="#0096D1"/>
<path d="M290.239 237.326L296.316 233.277C296.359 233.247 296.412 233.23 296.465 233.227C296.52 233.224 296.573 233.236 296.619 233.262C296.667 233.287 296.708 233.325 296.734 233.371C296.763 233.417 296.778 233.47 296.778 233.524V241.921C296.778 241.976 296.763 242.029 296.734 242.075C296.708 242.121 296.667 242.159 296.619 242.183C296.573 242.209 296.52 242.221 296.465 242.219C296.412 242.217 296.359 242.2 296.316 242.169L290.239 238.119V241.883C290.239 242.041 290.176 242.19 290.066 242.303C289.953 242.414 289.801 242.476 289.645 242.476C289.486 242.476 289.335 242.414 289.224 242.303C289.114 242.19 289.051 242.041 289.051 241.883V233.563C289.051 233.405 289.114 233.254 289.224 233.143C289.335 233.031 289.486 232.969 289.645 232.969C289.801 232.969 289.953 233.031 290.066 233.143C290.176 233.254 290.239 233.405 290.239 233.563V237.326Z" fill="white"/>
<path d="M341.354 237.326L335.276 233.277C335.231 233.247 335.18 233.23 335.127 233.227C335.072 233.224 335.019 233.236 334.971 233.262C334.926 233.287 334.885 233.325 334.858 233.371C334.829 233.417 334.815 233.47 334.815 233.524V241.921C334.815 241.976 334.829 242.029 334.858 242.075C334.885 242.121 334.926 242.159 334.971 242.183C335.019 242.209 335.072 242.221 335.127 242.219C335.18 242.217 335.231 242.2 335.276 242.169L341.354 238.119V241.883C341.354 242.041 341.416 242.19 341.527 242.303C341.637 242.414 341.789 242.476 341.947 242.476C342.104 242.476 342.255 242.414 342.368 242.303C342.479 242.19 342.541 242.041 342.541 241.883V233.563C342.541 233.405 342.479 233.254 342.368 233.143C342.255 233.031 342.104 232.969 341.947 232.969C341.789 232.969 341.637 233.031 341.527 233.143C341.416 233.254 341.354 233.405 341.354 233.563V237.326Z" fill="white"/>
<path d="M312.23 234.157C312.23 233.829 312.497 233.563 312.824 233.563C313.153 233.563 313.418 233.829 313.418 234.157V241.289C313.418 241.616 313.153 241.883 312.824 241.883C312.497 241.883 312.23 241.616 312.23 241.289V234.157ZM318.173 234.157C318.173 233.829 318.439 233.563 318.769 233.563C319.096 233.563 319.362 233.829 319.362 234.157V241.289C319.362 241.616 319.096 241.883 318.769 241.883C318.439 241.883 318.173 241.616 318.173 241.289V234.157Z" fill="white"/>
<path d="M506.208 232.374H507.175C507.297 232.374 507.398 232.474 507.398 232.597V235.717C507.398 235.84 507.297 235.94 507.175 235.94H506.432C506.309 235.94 506.208 235.84 506.208 235.717V233.786C506.208 233.663 506.11 233.563 505.987 233.563H504.054C503.932 233.563 503.831 233.463 503.831 233.34V232.597C503.831 232.474 503.932 232.374 504.054 232.374H506.208ZM496.698 232.374H498.855C498.977 232.374 499.076 232.474 499.076 232.597V233.34C499.076 233.463 498.977 233.563 498.855 233.563H496.922C496.799 233.563 496.698 233.663 496.698 233.786V235.717C496.698 235.84 496.6 235.94 496.477 235.94H495.734C495.612 235.94 495.511 235.84 495.511 235.717V232.597C495.511 232.474 495.612 232.374 495.734 232.374H496.698ZM505.987 241.883C506.11 241.883 506.208 241.782 506.208 241.659V239.728C506.208 239.605 506.309 239.505 506.432 239.505H507.175C507.297 239.505 507.398 239.605 507.398 239.728V242.849C507.398 242.971 507.297 243.07 507.175 243.07H504.054C503.932 243.07 503.831 242.971 503.831 242.849V242.106C503.831 241.981 503.932 241.883 504.054 241.883H505.987ZM496.698 241.659C496.698 241.782 496.799 241.883 496.922 241.883H498.855C498.977 241.883 499.076 241.981 499.076 242.106V242.849C499.076 242.971 498.977 243.07 498.855 243.07H495.734C495.612 243.07 495.511 242.971 495.511 242.849V239.728C495.511 239.605 495.612 239.505 495.734 239.505H496.477C496.6 239.505 496.698 239.605 496.698 239.728V241.659Z" fill="white"/>
<path d="M482.51 232.374C482.666 232.374 482.818 232.437 482.928 232.548C483.041 232.66 483.104 232.811 483.104 232.969V237.128H481.914V233.563H472.406V241.883H475.971V243.07H471.81C471.654 243.07 471.502 243.007 471.392 242.897C471.279 242.786 471.216 242.635 471.216 242.476V232.969C471.216 232.811 471.279 232.66 471.392 232.548C471.502 232.437 471.654 232.374 471.81 232.374H482.51ZM482.51 238.317C482.666 238.317 482.818 238.38 482.928 238.491C483.041 238.602 483.104 238.754 483.104 238.911V242.476C483.104 242.635 483.041 242.786 482.928 242.897C482.818 243.007 482.666 243.07 482.51 243.07H477.755C477.596 243.07 477.445 243.007 477.334 242.897C477.224 242.786 477.161 242.635 477.161 242.476V238.911C477.161 238.754 477.224 238.602 477.334 238.491C477.445 238.38 477.596 238.317 477.755 238.317H482.51Z" fill="white"/>
<path d="M408.988 185.537C402.817 178.084 403.858 167.04 411.313 160.87C418.768 154.7 429.814 155.74 435.985 163.194L475.344 210.736C481.515 218.19 480.474 229.234 473.02 235.404C465.565 241.572 454.519 240.532 448.348 233.079L408.988 185.537Z" fill="url(#paint0_linear_2_405)"/>
<path d="M478.772 226.39L496.104 150.924L461.002 163.737L444.92 217.321C442.415 226.667 447.963 236.274 457.31 238.778C466.659 241.282 476.267 235.736 478.772 226.39Z" fill="url(#paint1_linear_2_405)"/>
<path d="M496.124 150.5C496.975 152.684 489.758 157.537 480.005 161.339C470.252 165.141 461.654 166.453 460.803 164.269C459.952 162.085 467.168 157.232 476.921 153.43C486.676 149.628 495.273 148.316 496.124 150.5Z" fill="#3F3F3F"/>
<path d="M476.38 150.032V162.623C476.38 162.623 482.873 160.698 488.527 157.498C494.434 154.155 495.436 152.595 495.436 152.595L495.77 150.032L494.967 145.15C494.549 142.615 495.023 140.013 496.304 137.786L505.593 121.635C506.165 120.641 505.696 119.372 504.617 118.989C503.809 118.703 502.912 119.011 502.453 119.733L501.677 120.951L501.84 120.256C501.996 119.594 501.585 118.93 500.924 118.775C500.494 118.673 500.042 118.81 499.742 119.133L498.669 120.282V119.529C498.669 119.101 498.434 118.707 498.056 118.505C497.568 118.242 496.965 118.359 496.612 118.784L488.861 128.082V127.574C488.861 126.993 488.39 126.522 487.811 126.522C487.489 126.522 487.186 126.669 486.986 126.92L476.551 140.075C475.25 141.715 474.794 143.87 475.315 145.897L476.38 150.032Z" fill="#F1BFA9"/>
<path fill-rule="evenodd" clip-rule="evenodd" d="M498.77 119.991C498.929 120.108 498.965 120.334 498.847 120.495L492.83 128.74C492.712 128.901 492.486 128.936 492.325 128.819C492.164 128.702 492.13 128.476 492.248 128.315L498.265 120.07C498.383 119.909 498.609 119.874 498.77 119.991ZM502.227 120.662C502.386 120.781 502.419 121.006 502.302 121.166L496.171 129.411C496.054 129.571 495.828 129.605 495.667 129.486C495.508 129.367 495.474 129.141 495.592 128.981L501.722 120.736C501.84 120.576 502.066 120.543 502.227 120.662ZM489.085 127.799C489.241 127.923 489.267 128.149 489.145 128.305L484.13 134.657C484.005 134.813 483.779 134.84 483.623 134.716C483.467 134.593 483.44 134.366 483.563 134.21L488.577 127.859C488.702 127.702 488.928 127.676 489.085 127.799Z" fill="#DD9576"/>
<path d="M352.621 165.093L365.72 223.349H425.006L434.441 194.544C435.124 192.461 435.285 190.241 434.907 188.081L430.431 162.475C429.871 159.275 427.095 156.941 423.844 156.941H359.145C354.859 156.941 351.681 160.913 352.621 165.093Z" fill="url(#paint2_linear_2_405)"/>
<path fill-rule="evenodd" clip-rule="evenodd" d="M361.859 156.914H421.498L413.813 179.33L420.262 189.566L399.278 182.98L376.694 192.189L379.595 179.464L361.859 156.914ZM363.342 157.635L380.374 179.289L377.703 190.998L399.247 182.214L418.606 188.29L413.019 179.423L420.491 157.635H363.342Z" fill="#3F3F3F"/>
<path fill-rule="evenodd" clip-rule="evenodd" d="M430.46 170.305C430.65 170.24 430.854 170.34 430.919 170.528L433.33 177.524C436.186 185.809 435.924 194.85 432.59 202.954L429.47 210.546L426.354 220.669C426.296 220.86 426.094 220.967 425.905 220.908C425.712 220.849 425.606 220.648 425.664 220.457L428.789 210.302L431.924 202.68C435.189 194.738 435.448 185.878 432.65 177.759L430.236 170.763C430.172 170.575 430.273 170.37 430.46 170.305Z" fill="#3F3F3F"/>
<path d="M368.982 170.207L378.424 223.356H352.012L339.166 174.06C338.077 165.621 343.865 157.918 352.099 156.854C360.332 155.79 367.89 161.769 368.982 170.207Z" fill="url(#paint3_linear_2_405)"/>
<path fill-rule="evenodd" clip-rule="evenodd" d="M366.521 177.205C366.713 177.155 366.91 177.27 366.96 177.463L378.884 223.147C378.934 223.339 378.819 223.536 378.627 223.586C378.434 223.637 378.237 223.521 378.187 223.329L366.263 177.645C366.213 177.452 366.328 177.255 366.521 177.205Z" fill="#3F3F3F"/>
<path d="M388.819 133.42C400.353 134.059 410.185 125.89 410.779 115.175C411.372 104.46 402.503 95.2565 390.968 94.6177C379.434 93.9789 369.602 102.147 369.009 112.862C368.415 123.577 377.284 132.781 388.819 133.42Z" fill="#CD764F"/>
<path d="M377.367 141.973C388.729 142.603 398.461 133.707 399.104 122.105C399.746 110.502 391.057 100.587 379.694 99.9574C368.332 99.3281 358.6 108.224 357.957 119.826C357.315 131.428 366.004 141.344 377.367 141.973Z" fill="#CD764F"/>
<path d="M405.556 150.611C414.034 149.573 420.044 141.688 418.98 132.999C417.916 124.31 410.181 118.107 401.703 119.145C393.225 120.183 387.215 128.068 388.279 136.757C389.343 145.446 397.078 151.649 405.556 150.611Z" fill="#CD764F"/>
<path fill-rule="evenodd" clip-rule="evenodd" d="M371.643 116.224C373.312 108.627 380.677 103.699 388.339 105.057C395.012 106.24 399.808 111.814 400.272 118.283C400.752 118.288 401.236 118.35 401.716 118.475C405.483 119.455 407.584 123.912 406.409 128.43C405.702 131.145 403.974 133.264 401.89 134.311L404.962 154.311C405.806 159.805 402.387 165.056 397.019 166.508C390.661 168.229 384.235 163.969 383.346 157.442L382.29 149.696C381.057 149.656 379.807 149.461 378.564 149.095C371.086 146.895 366.583 139.287 368.254 131.674L371.643 116.224Z" fill="#F1BFA9"/>
<path d="M385.951 134.5C387.105 134.191 388.341 134.903 388.165 136.085C388.067 136.736 387.848 137.371 387.514 137.952C386.812 139.167 385.656 140.053 384.302 140.416C382.946 140.779 381.504 140.589 380.288 139.888C379.706 139.552 379.201 139.112 378.79 138.596C378.047 137.66 378.761 136.426 379.915 136.117L382.932 135.308L385.951 134.5Z" fill="white"/>
<path d="M390.73 147.193L382.264 149.843L382.881 154.378L390.73 147.193Z" fill="#3F3F3F"/>
<path d="M379.804 105.735C377.131 113.757 375.405 118.118 366.813 120.317C366.813 120.317 364.78 116.787 369.881 110.533C374.982 104.279 374.4 105.544 379.804 105.735C379.804 105.735 390.913 102.458 395.266 105.551C399.911 108.851 403.456 115.958 403.456 115.958L404.231 118.081C402.269 118.314 400.411 118.394 398.663 118.333L395.384 124.87L393.3 117.652C385.999 115.97 381.343 111.415 379.804 105.735Z" fill="#CD764F"/>
<path fill-rule="evenodd" clip-rule="evenodd" d="M375.107 123.336C375.494 123.435 375.725 123.829 375.626 124.214L375.059 126.411C374.958 126.797 374.566 127.029 374.179 126.929C373.794 126.829 373.561 126.436 373.662 126.051L374.23 123.854C374.328 123.468 374.722 123.236 375.107 123.336Z" fill="#3F3F3F"/>
<path fill-rule="evenodd" clip-rule="evenodd" d="M386.776 124.576C387.163 124.676 387.394 125.069 387.295 125.455L386.728 127.652C386.627 128.037 386.235 128.269 385.848 128.17C385.464 128.07 385.233 127.677 385.331 127.291L385.899 125.094C385.997 124.709 386.391 124.477 386.776 124.576Z" fill="#3F3F3F"/>
<path fill-rule="evenodd" clip-rule="evenodd" d="M379.612 126.764C379.805 126.82 379.915 127.021 379.857 127.212L377.994 133.568L380.3 133.334C380.497 133.313 380.675 133.458 380.694 133.656C380.716 133.854 380.571 134.031 380.372 134.051L377.533 134.34C377.415 134.352 377.297 134.304 377.22 134.211C377.143 134.119 377.117 133.994 377.151 133.879L379.165 127.009C379.223 126.818 379.422 126.708 379.612 126.764Z" fill="#DD9576"/>
<path fill-rule="evenodd" clip-rule="evenodd" d="M402.437 124.43L402.433 124.431L402.421 124.432C402.409 124.433 402.389 124.434 402.365 124.436C402.317 124.441 402.245 124.448 402.159 124.458C401.981 124.478 401.735 124.512 401.464 124.564C400.906 124.671 400.288 124.846 399.899 125.11C399.856 125.139 399.815 125.171 399.771 125.205C400.257 125.168 400.882 125.159 401.38 125.294C401.651 125.369 401.966 125.509 402.202 125.621C402.322 125.679 402.425 125.733 402.5 125.772C402.536 125.792 402.567 125.808 402.586 125.819C402.598 125.824 402.606 125.829 402.611 125.832L402.618 125.836L402.62 125.837C402.62 125.837 402.62 125.837 402.454 126.137L402.62 125.837C402.796 125.934 402.858 126.153 402.76 126.327C402.663 126.502 402.445 126.564 402.269 126.467V126.467L402.264 126.464C402.26 126.461 402.252 126.458 402.243 126.452C402.226 126.443 402.197 126.428 402.163 126.41C402.094 126.374 401.998 126.324 401.887 126.271C401.661 126.161 401.397 126.046 401.19 125.99C400.805 125.885 400.264 125.888 399.788 125.927C399.558 125.946 399.351 125.972 399.204 125.993C399.178 125.997 399.151 126.001 399.13 126.004C398.786 126.601 398.553 127.326 398.404 127.933C398.324 128.257 398.269 128.54 398.235 128.742C398.219 128.843 398.206 128.924 398.199 128.978C398.194 129.005 398.192 129.026 398.19 129.04L398.187 129.055V129.058V129.059C398.163 129.257 397.985 129.398 397.788 129.374C397.589 129.351 397.447 129.171 397.471 128.974L397.829 129.016C397.471 128.974 397.471 128.974 397.471 128.974V128.973V128.971L397.473 128.966L397.476 128.947C397.478 128.931 397.481 128.907 397.485 128.877C397.493 128.816 397.507 128.73 397.524 128.622C397.562 128.406 397.618 128.105 397.704 127.761C397.872 127.079 398.151 126.2 398.601 125.484C398.836 125.107 399.132 124.76 399.495 124.513C400.014 124.161 400.757 123.965 401.327 123.856C401.62 123.8 401.885 123.764 402.074 123.741C402.171 123.73 402.248 123.723 402.3 123.718C402.327 123.716 402.348 123.714 402.363 123.713L402.38 123.711L402.385 123.711L402.387 123.711C402.387 123.711 402.387 123.711 402.413 124.071L402.387 123.711C402.586 123.697 402.757 123.847 402.772 124.046C402.786 124.245 402.635 124.417 402.437 124.43Z" fill="#DD9576"/>
<path d="M405.878 133.919C405.774 135.8 404.164 137.241 402.284 137.136C400.401 137.032 398.961 135.423 399.065 133.541C399.168 131.66 400.779 130.22 402.661 130.324C404.541 130.428 405.983 132.038 405.878 133.919Z" fill="white"/>
<path d="M403.834 146.355L382.548 152.261L382.882 156.941H374.636L390.795 201.399L391.24 223.46H412.638L408.291 198.502L412.638 156.941H405.395L403.834 146.355Z" fill="#C2BBFF"/>
<path d="M426.121 81.8467C426.121 78.4591 428.869 75.713 432.256 75.713H482.837C486.227 75.713 488.972 78.4591 488.972 81.8467V112.669C488.972 116.056 486.227 118.802 482.837 118.802H438.323C436.439 118.802 434.6 119.381 433.056 120.459L430.943 121.933C428.912 123.352 426.121 121.898 426.121 119.418V118.802V81.8467Z" fill="#E12B8F"/>
<path fill-rule="evenodd" clip-rule="evenodd" d="M438.273 88.8539C438.073 88.8539 437.912 89.0152 437.912 89.2144C437.912 89.4134 438.073 89.575 438.273 89.575H478.046C478.245 89.575 478.406 89.4134 478.406 89.2144C478.406 89.0152 478.245 88.8539 478.046 88.8539H438.273ZM438.273 97.6909C438.073 97.6909 437.912 97.8524 437.912 98.0514C437.912 98.2507 438.073 98.412 438.273 98.412H453.494C453.694 98.412 453.855 98.2507 453.855 98.0514C453.855 97.8524 453.694 97.6909 453.494 97.6909H438.273ZM457.187 98.0514C457.187 97.8524 457.348 97.6909 457.547 97.6909H478.171C478.37 97.6909 478.531 97.8524 478.531 98.0514C478.531 98.2507 478.37 98.412 478.171 98.412H457.547C457.348 98.412 457.187 98.2507 457.187 98.0514ZM438.273 106.528C438.073 106.528 437.912 106.69 437.912 106.889C437.912 107.088 438.073 107.249 438.273 107.249H478.046C478.245 107.249 478.406 107.088 478.406 106.889C478.406 106.69 478.245 106.528 478.046 106.528H438.273Z" fill="#3F3F3F"/>
<path d="M336.745 101.072C337.161 100.269 338.31 100.269 338.724 101.072L341.902 107.216C341.993 107.39 342.128 107.537 342.291 107.642L347.301 110.846C347.986 111.284 347.986 112.285 347.301 112.723L342.392 115.863C342.166 116.008 341.998 116.23 341.923 116.488L338.806 127.147C338.493 128.216 336.979 128.216 336.666 127.147L333.548 116.488C333.471 116.23 333.305 116.008 333.079 115.863L328.171 112.723C327.485 112.285 327.485 111.284 328.171 110.846L333.178 107.642C333.344 107.537 333.478 107.39 333.567 107.216L336.745 101.072Z" fill="#F7B008"/>
<path d="M301.629 177.987C302.044 177.184 303.191 177.184 303.607 177.987L305.09 180.85C305.179 181.024 305.314 181.171 305.48 181.276L307.836 182.783C308.521 183.221 308.521 184.222 307.836 184.66L305.578 186.103C305.352 186.248 305.184 186.47 305.109 186.728L303.686 191.587C303.374 192.655 301.862 192.655 301.547 191.587L300.126 186.728C300.049 186.47 299.883 186.248 299.657 186.103L297.4 184.66C296.715 184.222 296.715 183.221 297.4 182.783L299.756 181.276C299.922 181.171 300.056 181.024 300.145 180.85L301.629 177.987Z" fill="#0096D1"/>
<path fill-rule="evenodd" clip-rule="evenodd" d="M256.733 162.728H24.7156C21.8195 162.728 19.4717 165.076 19.4717 167.972V321.066C19.4717 323.963 21.8195 326.311 24.7156 326.311H256.733C259.629 326.311 261.976 323.963 261.976 321.066V167.972C261.976 165.076 259.629 162.728 256.733 162.728ZM24.7156 161.286C21.0229 161.286 18.0293 164.279 18.0293 167.972V321.066C18.0293 324.761 21.0229 327.753 24.7156 327.753H256.733C260.425 327.753 263.418 324.761 263.418 321.066V167.972C263.418 164.279 260.425 161.286 256.733 161.286H24.7156Z" fill="#E12B8F"/>
<path d="M215.485 235.3C215.9 234.497 217.048 234.497 217.464 235.3L220.886 241.909C220.976 242.084 221.111 242.231 221.276 242.337L226.664 245.779C227.35 246.219 227.35 247.219 226.664 247.658L221.376 251.038C221.149 251.182 220.982 251.403 220.906 251.663L217.544 263.145C217.231 264.214 215.717 264.214 215.405 263.145L212.042 251.663C211.966 251.403 211.8 251.182 211.573 251.038L206.284 247.658C205.599 247.219 205.599 246.219 206.284 245.779L211.672 242.337C211.838 242.231 211.972 242.084 212.062 241.909L215.485 235.3Z" fill="#F7B008"/>
<path d="M189.691 244.176C187.238 235.851 178.591 231.001 170.206 233.247C161.413 235.603 156.356 244.81 159.087 253.494L177.452 311.897L209.705 312.099L189.691 244.176Z" fill="#DD9576"/>
<path d="M189.741 244.027C187.256 235.771 178.66 230.983 170.331 233.214C161.498 235.581 156.457 244.87 159.288 253.564L173.596 297.509L205.426 296.131L189.741 244.027Z" fill="url(#paint4_linear_2_405)"/>
<path d="M106.836 244.433L104.362 311.921H179.845L185.822 276.328C186.48 272.406 186.256 268.387 185.165 264.563L176.087 232.75L136.549 229.896L118.902 231.615C112.238 232.265 107.081 237.743 106.836 244.433Z" fill="url(#paint5_linear_2_405)"/>
<path d="M176.208 232.908L136.303 229.903L137.401 236.669C138.382 242.712 144.686 246.31 150.39 244.084L156.856 241.56L164.219 243.435C170.298 244.983 176.208 240.39 176.208 234.118V232.908Z" fill="white"/>
<path fill-rule="evenodd" clip-rule="evenodd" d="M179.43 243.493C179.622 243.44 179.821 243.551 179.875 243.743L185.313 263.118C186.689 268.019 186.939 273.168 186.045 278.179L182.527 297.913L182.526 297.917L180.307 311.654C180.275 311.851 180.09 311.983 179.893 311.952C179.696 311.921 179.563 311.736 179.594 311.538L181.815 297.795L185.336 278.052C186.21 273.148 185.965 268.11 184.619 263.313L179.181 243.938C179.127 243.745 179.238 243.548 179.43 243.493Z" fill="#3F3F3F"/>
<path d="M18.0293 299.006H263.418V321.066C263.418 324.761 260.425 327.753 256.733 327.753H24.7156C21.0229 327.753 18.0293 324.761 18.0293 321.066V299.006Z" fill="#E12B8F"/>
<path d="M33.928 313.094L40.0039 309.044C40.0487 309.015 40.1008 308.998 40.1544 308.996C40.208 308.993 40.2616 309.005 40.309 309.029C40.3564 309.056 40.396 309.094 40.4237 309.14C40.4513 309.185 40.4657 309.238 40.4657 309.291V317.689C40.4657 317.742 40.4513 317.795 40.4237 317.843C40.396 317.889 40.3564 317.925 40.309 317.951C40.2616 317.978 40.208 317.99 40.1544 317.987C40.1008 317.983 40.0487 317.966 40.0039 317.937L33.928 313.887V317.651C33.928 317.807 33.8655 317.959 33.754 318.071C33.6424 318.182 33.4914 318.245 33.3338 318.245C33.1761 318.245 33.0248 318.182 32.9135 318.071C32.802 317.959 32.7393 317.807 32.7393 317.651V309.33C32.7393 309.173 32.802 309.022 32.9135 308.911C33.0248 308.798 33.1761 308.736 33.3338 308.736C33.4914 308.736 33.6424 308.798 33.754 308.911C33.8655 309.022 33.928 309.173 33.928 309.33V313.094Z" fill="white"/>
<path d="M85.0416 313.094L78.9657 309.044C78.921 309.015 78.8691 308.998 78.8152 308.996C78.7616 308.993 78.7082 309.005 78.6609 309.029C78.6135 309.056 78.5739 309.094 78.5462 309.14C78.5186 309.185 78.5039 309.238 78.5039 309.291V317.689C78.5039 317.742 78.5186 317.795 78.5462 317.843C78.5739 317.889 78.6135 317.925 78.6609 317.951C78.7082 317.978 78.7616 317.99 78.8152 317.987C78.8691 317.983 78.921 317.966 78.9657 317.937L85.0416 313.887V317.651C85.0416 317.807 85.1044 317.959 85.2157 318.071C85.3272 318.182 85.4784 318.245 85.6361 318.245C85.7936 318.245 85.9448 318.182 86.0563 318.071C86.1679 317.959 86.2304 317.807 86.2304 317.651V309.33C86.2304 309.173 86.1679 309.022 86.0563 308.911C85.9448 308.798 85.7936 308.736 85.6361 308.736C85.4784 308.736 85.3272 308.798 85.2157 308.911C85.1044 309.022 85.0416 309.173 85.0416 309.33V313.094Z" fill="white"/>
<path d="M55.9189 309.926C55.9189 309.596 56.1851 309.33 56.5134 309.33C56.8416 309.33 57.1077 309.596 57.1077 309.926V317.057C57.1077 317.384 56.8416 317.651 56.5134 317.651C56.1851 317.651 55.9189 317.384 55.9189 317.057V309.926ZM61.8624 309.926C61.8624 309.596 62.1285 309.33 62.4567 309.33C62.7851 309.33 63.0512 309.596 63.0512 309.926V317.057C63.0512 317.384 62.7851 317.651 62.4567 317.651C62.1285 317.651 61.8624 317.384 61.8624 317.057V309.926Z" fill="white"/>
<path d="M249.898 308.142H250.865C250.987 308.142 251.086 308.241 251.086 308.366V311.486C251.086 311.608 250.987 311.707 250.865 311.707H250.122C249.997 311.707 249.898 311.608 249.898 311.486V309.553C249.898 309.431 249.797 309.33 249.675 309.33H247.744C247.619 309.33 247.521 309.231 247.521 309.108V308.366C247.521 308.241 247.619 308.142 247.744 308.142H249.898ZM240.388 308.142H242.542C242.665 308.142 242.766 308.241 242.766 308.366V309.108C242.766 309.231 242.665 309.33 242.542 309.33H240.612C240.489 309.33 240.388 309.431 240.388 309.553V311.486C240.388 311.608 240.289 311.707 240.166 311.707H239.423C239.299 311.707 239.2 311.608 239.2 311.486V308.366C239.2 308.241 239.299 308.142 239.423 308.142H240.388ZM249.675 317.651C249.797 317.651 249.898 317.55 249.898 317.427V315.497C249.898 315.372 249.997 315.274 250.122 315.274H250.865C250.987 315.274 251.086 315.372 251.086 315.497V318.617C251.086 318.74 250.987 318.838 250.865 318.838H247.744C247.619 318.838 247.521 318.74 247.521 318.617V317.874C247.521 317.749 247.619 317.651 247.744 317.651H249.675ZM240.388 317.427C240.388 317.55 240.489 317.651 240.612 317.651H242.542C242.665 317.651 242.766 317.749 242.766 317.874V318.617C242.766 318.74 242.665 318.838 242.542 318.838H239.423C239.299 318.838 239.2 318.74 239.2 318.617V315.497C239.2 315.372 239.299 315.274 239.423 315.274H240.166C240.289 315.274 240.388 315.372 240.388 315.497V317.427Z" fill="white"/>
<path d="M226.198 308.142C226.356 308.142 226.507 308.205 226.618 308.315C226.73 308.428 226.792 308.58 226.792 308.736V312.897H225.604V309.33H216.094V317.651H219.66V318.838H215.5C215.342 318.838 215.191 318.776 215.08 318.665C214.968 318.552 214.906 318.403 214.906 318.244V308.736C214.906 308.58 214.968 308.428 215.08 308.315C215.191 308.205 215.342 308.142 215.5 308.142H226.198ZM226.198 314.084C226.356 314.084 226.507 314.146 226.618 314.259C226.73 314.37 226.792 314.521 226.792 314.68V318.244C226.792 318.403 226.73 318.552 226.618 318.665C226.507 318.776 226.356 318.838 226.198 318.838H221.443C221.286 318.838 221.135 318.776 221.023 318.665C220.912 318.552 220.849 318.403 220.849 318.244V314.68C220.849 314.521 220.912 314.37 221.023 314.259C221.135 314.146 221.286 314.084 221.443 314.084H226.198Z" fill="white"/>
<path fill-rule="evenodd" clip-rule="evenodd" d="M156.569 219.791C159.892 223.404 164.66 225.668 169.956 225.668C179.998 225.668 188.139 217.528 188.139 207.487C188.139 202.952 186.479 198.805 183.733 195.62C183.988 194.473 184.122 193.279 184.122 192.054C184.122 184.942 179.591 178.896 173.275 176.679C170.567 172.93 166.159 170.49 161.181 170.49C156.6 170.49 152.502 172.557 149.768 175.807C148.768 175.647 147.742 175.564 146.698 175.564C136.776 175.564 128.609 183.072 127.569 192.715C124.725 196.153 123.017 200.563 123.017 205.373C123.017 216.348 131.915 225.245 142.892 225.245C148.191 225.245 153.006 223.171 156.569 219.791Z" fill="#3F3F3F"/>
<path fill-rule="evenodd" clip-rule="evenodd" d="M172.087 192.703C169.825 185.469 162.255 181.31 154.934 183.278C148.033 185.133 143.703 191.791 144.583 198.69C143.892 198.754 143.213 198.94 142.57 199.259C139.263 200.901 138.18 205.448 140.15 209.414C141.334 211.797 143.351 213.429 145.489 213.996L146.528 233.163C146.813 238.429 151.009 242.64 156.274 242.945C162.514 243.305 167.65 238.101 167.207 231.867L166.766 225.667C167.232 225.537 167.697 225.381 168.159 225.2C175.232 222.431 178.957 214.663 176.69 207.415L172.087 192.703Z" fill="#DD9576"/>
<path d="M159.913 224.187L166.784 225.668L166.996 228.627L159.913 224.187Z" fill="#3F3F3F"/>
<path fill-rule="evenodd" clip-rule="evenodd" d="M161.193 201.975C161.367 202.072 161.43 202.291 161.333 202.465L161.018 202.29C161.333 202.465 161.333 202.465 161.333 202.465L161.333 202.466L161.332 202.468L161.33 202.471C161.328 202.474 161.326 202.478 161.323 202.483C161.317 202.493 161.309 202.506 161.3 202.521C161.28 202.553 161.251 202.598 161.214 202.651C161.139 202.757 161.029 202.9 160.883 203.054C160.591 203.36 160.143 203.722 159.536 203.904C158.924 204.087 158.274 204.022 157.8 203.925C157.559 203.875 157.354 203.815 157.208 203.767C157.135 203.743 157.077 203.722 157.036 203.707C157.015 203.699 156.999 203.693 156.988 203.688C156.982 203.686 156.977 203.684 156.974 203.683L156.97 203.681L156.969 203.68L156.968 203.68C156.968 203.68 156.968 203.68 157.106 203.347L156.968 203.68C156.784 203.604 156.697 203.393 156.773 203.209C156.85 203.025 157.061 202.938 157.245 203.014L157.11 203.338C157.245 203.014 157.245 203.014 157.245 203.014L157.246 203.015L157.254 203.018C157.261 203.021 157.273 203.026 157.29 203.032C157.322 203.044 157.371 203.062 157.434 203.082C157.559 203.124 157.737 203.176 157.945 203.218C158.37 203.306 158.883 203.347 159.329 203.213C159.778 203.078 160.123 202.806 160.36 202.557C160.478 202.433 160.566 202.319 160.624 202.237C160.652 202.196 160.673 202.163 160.687 202.142C160.693 202.131 160.698 202.123 160.701 202.119L160.703 202.114L160.703 202.115C160.8 201.941 161.019 201.878 161.193 201.975Z" fill="#3F3F3F"/>
<path fill-rule="evenodd" clip-rule="evenodd" d="M171.505 199.56C171.68 199.657 171.742 199.877 171.646 200.051L171.33 199.876C171.646 200.051 171.645 200.051 171.645 200.051L171.645 200.052L171.644 200.053L171.642 200.057C171.64 200.06 171.638 200.064 171.635 200.069C171.63 200.078 171.622 200.091 171.612 200.107C171.592 200.139 171.564 200.183 171.526 200.236C171.452 200.342 171.342 200.486 171.195 200.64C170.904 200.946 170.456 201.307 169.848 201.49C169.236 201.673 168.586 201.608 168.113 201.51C167.872 201.461 167.666 201.401 167.521 201.353C167.448 201.329 167.389 201.308 167.348 201.292C167.328 201.285 167.312 201.279 167.3 201.274C167.294 201.272 167.29 201.27 167.287 201.268L167.282 201.267L167.281 201.266L167.281 201.266C167.281 201.266 167.28 201.266 167.419 200.933L167.28 201.266C167.096 201.189 167.009 200.978 167.086 200.794C167.163 200.611 167.374 200.524 167.557 200.6L167.423 200.924C167.557 200.6 167.557 200.6 167.557 200.6H167.557L167.558 200.6L167.566 200.604C167.574 200.607 167.586 200.612 167.602 200.618C167.635 200.63 167.684 200.648 167.746 200.668C167.871 200.709 168.05 200.761 168.258 200.804C168.683 200.892 169.196 200.932 169.641 200.799C170.091 200.664 170.436 200.391 170.673 200.142C170.79 200.019 170.878 199.905 170.936 199.822C170.965 199.781 170.986 199.749 170.999 199.727C171.006 199.716 171.01 199.709 171.013 199.704L171.016 199.7L171.015 199.7C171.112 199.526 171.331 199.464 171.505 199.56Z" fill="#3F3F3F"/>
<path fill-rule="evenodd" clip-rule="evenodd" d="M164.625 202.705C164.449 202.799 164.383 203.018 164.477 203.193L167.432 208.708L165.273 208.936C165.074 208.957 164.931 209.135 164.952 209.333C164.973 209.531 165.15 209.674 165.348 209.653L168.04 209.369C168.16 209.356 168.265 209.285 168.321 209.179C168.377 209.073 168.377 208.946 168.32 208.84L165.113 202.853C165.019 202.677 164.801 202.611 164.625 202.705Z" fill="#CD764F"/>
<path fill-rule="evenodd" clip-rule="evenodd" d="M160.248 211.283C160.092 211.407 160.066 211.634 160.189 211.79L160.462 211.574C160.189 211.79 160.189 211.79 160.189 211.79L160.19 211.79L160.191 211.792L160.194 211.796C160.197 211.799 160.201 211.803 160.205 211.809C160.214 211.82 160.227 211.836 160.244 211.855C160.277 211.895 160.326 211.95 160.388 212.017C160.511 212.15 160.689 212.33 160.91 212.519C161.346 212.892 161.98 213.328 162.71 213.483C163.421 213.635 164.009 213.56 164.423 213.444C164.629 213.386 164.792 213.318 164.906 213.262C164.963 213.235 165.008 213.21 165.04 213.191C165.056 213.182 165.069 213.174 165.079 213.168C165.084 213.165 165.087 213.163 165.091 213.161L165.095 213.158L165.096 213.157L165.097 213.157L165.097 213.156C165.097 213.156 165.098 213.156 164.897 212.856L165.098 213.156C165.263 213.046 165.308 212.822 165.197 212.656C165.087 212.491 164.864 212.446 164.699 212.555L164.697 212.557C164.694 212.559 164.688 212.562 164.679 212.567C164.661 212.578 164.631 212.594 164.591 212.614C164.511 212.653 164.388 212.705 164.228 212.75C163.909 212.839 163.44 212.902 162.86 212.778C162.301 212.659 161.778 212.312 161.379 211.971C161.183 211.804 161.025 211.644 160.916 211.526C160.862 211.468 160.82 211.42 160.793 211.388C160.779 211.372 160.769 211.359 160.763 211.351L160.756 211.343L160.755 211.342C160.631 211.186 160.404 211.159 160.248 211.283Z" fill="#DB3915"/>
<path d="M143.063 204.946H143.062C142.865 204.974 142.683 204.836 142.656 204.639C142.628 204.442 142.766 204.26 142.963 204.232L143.013 204.589C142.963 204.232 142.963 204.232 142.963 204.232L142.965 204.232L142.97 204.231L142.986 204.229C143 204.227 143.02 204.225 143.046 204.222C143.097 204.216 143.17 204.208 143.261 204.2C143.442 204.183 143.694 204.165 143.977 204.16C144.53 204.151 145.26 204.188 145.815 204.416C146.204 204.575 146.546 204.843 146.84 205.148C147.399 205.727 147.831 206.491 148.119 207.092C148.265 207.396 148.378 207.665 148.454 207.858C148.492 207.955 148.521 208.033 148.541 208.087C148.55 208.115 148.558 208.136 148.563 208.151L148.569 208.168L148.571 208.173L148.571 208.174L148.572 208.175C148.635 208.364 148.534 208.568 148.345 208.632C148.156 208.695 147.952 208.594 147.888 208.405L147.888 208.405L147.887 208.402L147.882 208.388C147.878 208.376 147.871 208.358 147.862 208.333C147.845 208.284 147.818 208.212 147.782 208.122C147.712 207.941 147.606 207.689 147.469 207.404C147.214 206.872 146.86 206.249 146.429 205.766C146.41 205.766 146.389 205.768 146.367 205.769C146.226 205.778 146.031 205.793 145.812 205.821C145.363 205.878 144.862 205.98 144.529 206.151C144.351 206.241 144.128 206.399 143.939 206.545C143.847 206.616 143.767 206.68 143.711 206.727C143.683 206.751 143.66 206.77 143.645 206.782C143.638 206.789 143.632 206.794 143.628 206.797L143.624 206.8L143.623 206.801C143.472 206.932 143.245 206.915 143.114 206.765C142.984 206.614 143 206.387 143.151 206.256L143.153 206.254L143.158 206.249C143.163 206.246 143.17 206.24 143.178 206.233C143.196 206.218 143.22 206.197 143.251 206.172C143.313 206.121 143.399 206.051 143.499 205.973C143.695 205.823 143.961 205.631 144.201 205.509C144.621 205.294 145.175 205.181 145.623 205.119C145.596 205.106 145.568 205.094 145.542 205.083C145.132 204.915 144.529 204.872 143.99 204.881C143.728 204.886 143.495 204.902 143.327 204.918C143.243 204.925 143.176 204.933 143.13 204.938C143.107 204.941 143.089 204.943 143.078 204.944L143.065 204.946L143.063 204.946Z" fill="#CD764F"/>
<path d="M148.155 216.507C147.588 214.812 145.753 213.898 144.058 214.466C142.363 215.033 141.449 216.867 142.017 218.562C142.584 220.257 144.418 221.171 146.114 220.603C147.809 220.036 148.723 218.202 148.155 216.507Z" fill="white"/>
<path d="M146.364 212.827C146.119 212.096 145.328 211.702 144.596 211.946C143.865 212.191 143.47 212.983 143.715 213.714C143.96 214.446 144.752 214.84 145.483 214.595C146.215 214.35 146.609 213.559 146.364 212.827Z" fill="white"/>
<path d="M169.955 183.175L152.935 180.744L143.949 186.24L144.16 198.29L149.234 202.941L148.389 198.607C148.389 198.607 150.015 194.263 153.675 195.753C162.238 199.242 161.7 191.026 165.304 190.045C168.544 189.164 173.233 190.045 173.233 190.045L169.955 183.175Z" fill="#3F3F3F"/>
<path fill-rule="evenodd" clip-rule="evenodd" d="M175.971 232.718C171.936 238.919 164.944 243.019 156.994 243.019C147.93 243.019 140.11 237.689 136.5 229.993L175.971 232.718Z" fill="#DD9576"/>
<path d="M151.446 232.114L149.534 231.745C146.955 231.245 144.506 233.073 144.251 235.688L142.299 255.686C142.103 257.696 143.498 259.513 145.49 259.842C147.444 260.164 149.322 258.946 149.824 257.03L154.911 237.62C155.564 235.128 153.975 232.604 151.446 232.114Z" fill="#E12B8F"/>
<path d="M133.577 255.831C137.626 247.673 134.294 237.778 126.136 233.73C117.977 229.681 108.08 233.012 104.031 241.17L80.1892 289.204C76.1401 297.362 79.4717 307.257 87.6305 311.306C95.7893 315.354 105.686 312.023 109.735 303.865L133.577 255.831Z" fill="url(#paint6_linear_2_405)"/>
<path d="M151.174 237.889C155.67 237.889 159.314 234.245 159.314 229.75C159.314 225.255 155.67 221.611 151.174 221.611C146.678 221.611 143.034 225.255 143.034 229.75C143.034 234.245 146.678 237.889 151.174 237.889Z" fill="#0096D1"/>
<path fill-rule="evenodd" clip-rule="evenodd" d="M126.943 258.491L133.307 243.385C134.379 240.842 136.974 239.283 139.724 239.531L162.67 241.604C163.61 241.69 164.102 242.762 163.553 243.529C163.353 243.81 163.045 243.991 162.704 244.031L157.23 244.678L160.051 244.95C161.138 245.053 161.837 246.151 161.47 247.18C161.217 247.889 160.522 248.341 159.772 248.288L157.856 248.149L160.231 248.997C160.869 249.226 161.281 249.843 161.246 250.521C161.204 251.317 160.557 251.949 159.759 251.97L158.815 251.999C159.602 252.617 159.395 253.86 158.449 254.189L148.272 257.732C146.623 258.306 145.497 259.833 145.436 261.578L145.238 267.24C145.202 268.257 144.802 269.226 144.11 269.971L136.874 277.759C136.623 278.083 136.352 278.398 136.058 278.701L106.731 309.034C101.192 314.764 92.031 314.841 86.3955 309.207C80.2784 303.09 80.9734 292.98 87.87 287.76L121.315 262.436C121.689 262.099 122.091 261.782 122.522 261.491L126.943 258.491Z" fill="#DD9576"/>
<path fill-rule="evenodd" clip-rule="evenodd" d="M148.053 244.63C148.053 244.433 148.215 244.269 148.414 244.269H156.977C157.176 244.269 157.337 244.433 157.337 244.63C157.337 244.829 157.176 244.99 156.977 244.99H148.414C148.215 244.99 148.053 244.829 148.053 244.63ZM148.899 248.014C148.899 247.815 149.06 247.654 149.26 247.654H157.294C157.493 247.654 157.655 247.815 157.655 248.014C157.655 248.211 157.493 248.375 157.294 248.375H149.26C149.06 248.375 148.899 248.211 148.899 248.014ZM148.899 251.925C148.899 251.725 149.06 251.564 149.26 251.564H158.246C158.445 251.564 158.606 251.725 158.606 251.925C158.606 252.124 158.445 252.285 158.246 252.285H149.26C149.06 252.285 148.899 252.124 148.899 251.925Z" fill="#CD764F"/>
<path fill-rule="evenodd" clip-rule="evenodd" d="M142.941 239.37C142.956 239.186 143.118 239.049 143.302 239.064L160.909 240.513C161.093 240.527 161.23 240.69 161.215 240.873C161.2 241.058 161.038 241.195 160.854 241.178L143.247 239.73C143.063 239.715 142.926 239.554 142.941 239.37Z" fill="#3F3F3F"/>
<path fill-rule="evenodd" clip-rule="evenodd" d="M217.387 190.995C217.471 191.175 217.393 191.39 217.213 191.474L211.449 194.165L212.186 198.055L214.514 207.777C214.56 207.971 214.44 208.165 214.247 208.212C214.053 208.258 213.859 208.139 213.812 207.945L211.48 198.206L210.636 193.749L216.908 190.821C217.088 190.737 217.303 190.814 217.387 190.995Z" fill="#E12B8F"/>
<path d="M214.219 207.23C214.892 208.85 213.402 211.009 210.892 212.051C208.382 213.093 205.802 212.623 205.129 211.003C204.456 209.382 205.945 207.224 208.455 206.182C210.965 205.14 213.546 205.609 214.219 207.23Z" fill="#E12B8F"/>
<path fill-rule="evenodd" clip-rule="evenodd" d="M70.5247 242.116C70.4403 242.296 70.5185 242.512 70.6988 242.596L74.3208 244.286L73.8655 246.69L72.3669 252.949C72.3205 253.143 72.4399 253.338 72.6335 253.384C72.8272 253.429 73.0219 253.312 73.0681 253.117L74.571 246.841L75.1335 243.87L71.0038 241.943C70.8235 241.859 70.6089 241.935 70.5247 242.116Z" fill="#0096D1"/>
<path d="M72.6818 252.627C72.2483 253.67 73.2075 255.061 74.8241 255.732C76.4408 256.403 78.1026 256.1 78.5361 255.057C78.9695 254.014 78.0103 252.622 76.3937 251.951C74.777 251.281 73.1152 251.584 72.6818 252.627Z" fill="#0096D1"/>
<path d="M113.225 183.153C113.225 200.145 99.4488 213.919 82.4549 213.919C65.461 213.919 51.6846 200.145 51.6846 183.153C51.6846 166.162 65.461 152.387 82.4549 152.387C99.4488 152.387 113.225 166.162 113.225 183.153Z" fill="#0096D1"/>
<path d="M96.6682 183.154C96.6682 191.002 90.3045 197.365 82.4544 197.365C74.6044 197.365 68.2407 191.002 68.2407 183.154C68.2407 175.305 74.6044 168.942 82.4544 168.942C90.3045 168.942 96.6682 175.305 96.6682 183.154Z" fill="white"/>
<path d="M85.2042 182.529C85.6699 182.529 86.0569 182.911 85.9487 183.364C85.7956 184.004 85.4682 184.595 84.9951 185.068C84.3213 185.742 83.4075 186.12 82.4546 186.12C81.502 186.12 80.5882 185.742 79.9144 185.068C79.4413 184.595 79.1139 184.004 78.9608 183.364C78.8523 182.911 79.2396 182.529 79.7052 182.529H82.4546H85.2042Z" fill="#0096D1"/>
<path d="M77.6124 180.03C77.6124 180.633 77.123 181.123 76.5191 181.123C75.9152 181.123 75.4258 180.633 75.4258 180.03C75.4258 179.426 75.9152 178.937 76.5191 178.937C77.123 178.937 77.6124 179.426 77.6124 180.03Z" fill="#0096D1"/>
<path d="M89.7962 180.03C89.7962 180.633 89.3068 181.123 88.7029 181.123C88.0991 181.123 87.6094 180.633 87.6094 180.03C87.6094 179.426 88.0991 178.937 88.7029 178.937C89.3068 178.937 89.7962 179.426 89.7962 180.03Z" fill="#0096D1"/>
<path d="M323.089 132.438C323.089 149.429 309.312 163.204 292.318 163.204C275.325 163.204 261.548 149.429 261.548 132.438C261.548 115.446 275.325 101.672 292.318 101.672C309.312 101.672 323.089 115.446 323.089 132.438Z" fill="#F7B008"/>
<path d="M306.561 132.468C306.561 140.317 300.198 146.68 292.349 146.68C284.498 146.68 278.135 140.317 278.135 132.468C278.135 124.619 284.498 118.256 292.349 118.256C300.198 118.256 306.561 124.619 306.561 132.468Z" fill="white"/>
<path fill-rule="evenodd" clip-rule="evenodd" d="M286.147 127.136C286.289 126.995 286.518 126.995 286.657 127.136L287.924 128.402C288.063 128.543 288.063 128.771 287.924 128.912L286.657 130.178C286.518 130.319 286.289 130.319 286.147 130.178C286.006 130.037 286.006 129.809 286.147 129.668L287.159 128.657L286.147 127.645C286.006 127.505 286.006 127.276 286.147 127.136Z" fill="#F7B008"/>
<path fill-rule="evenodd" clip-rule="evenodd" d="M298.407 127.217C298.268 127.076 298.04 127.076 297.898 127.217L296.631 128.483C296.492 128.624 296.492 128.852 296.631 128.993L297.898 130.259C298.04 130.4 298.268 130.4 298.407 130.259C298.549 130.118 298.549 129.89 298.407 129.749L297.395 128.738L298.407 127.726C298.549 127.586 298.549 127.357 298.407 127.217Z" fill="#F7B008"/>
<path d="M294.953 130.755C295.398 130.755 295.77 131.139 295.667 131.593C295.52 132.236 295.205 132.83 294.753 133.305C294.107 133.981 293.232 134.361 292.318 134.361C291.405 134.361 290.53 133.981 289.883 133.305C289.431 132.83 289.116 132.236 288.97 131.593C288.866 131.139 289.239 130.755 289.684 130.755H292.318H294.953Z" fill="#F7B008"/>
<path d="M308.304 277.614C310.76 277.614 312.751 275.623 312.751 273.168C312.751 270.712 310.76 268.721 308.304 268.721C305.848 268.721 303.857 270.712 303.857 273.168C303.857 275.623 305.848 277.614 308.304 277.614Z" fill="#F7B008"/>
<path d="M334.748 292.036C336.407 292.036 337.753 290.691 337.753 289.031C337.753 287.372 336.407 286.027 334.748 286.027C333.088 286.027 331.743 287.372 331.743 289.031C331.743 290.691 333.088 292.036 334.748 292.036Z" fill="#0096D1"/>
<path d="M458.189 137.966C460.181 137.966 461.795 136.352 461.795 134.361C461.795 132.369 460.181 130.755 458.189 130.755C456.198 130.755 454.583 132.369 454.583 134.361C454.583 136.352 456.198 137.966 458.189 137.966Z" fill="#0096D1"/>
<path d="M35.6983 234.59C37.3578 234.59 38.7032 233.245 38.7032 231.586C38.7032 229.926 37.3578 228.581 35.6983 228.581C34.0387 228.581 32.6934 229.926 32.6934 231.586C32.6934 233.245 34.0387 234.59 35.6983 234.59Z" fill="#C2BBFF"/>
<path d="M241.114 276.893C243.902 276.893 246.162 274.633 246.162 271.846C246.162 269.058 243.902 266.798 241.114 266.798C238.326 266.798 236.066 269.058 236.066 271.846C236.066 274.633 238.326 276.893 241.114 276.893Z" fill="#F7B008"/>
<defs>
<linearGradient id="paint0_linear_2_405" x1="599.298" y1="319.285" x2="470.797" y2="342.549" gradientUnits="userSpaceOnUse">
<stop stop-color="#FBF7B8"/>
<stop offset="1" stop-color="#F7CDE1"/>
</linearGradient>
<linearGradient id="paint1_linear_2_405" x1="528.533" y1="359.062" x2="406.015" y2="297.129" gradientUnits="userSpaceOnUse">
<stop stop-color="#FBF7B8"/>
<stop offset="1" stop-color="#F7CDE1"/>
</linearGradient>
<linearGradient id="paint2_linear_2_405" x1="330.728" y1="151.481" x2="443.331" y2="177.593" gradientUnits="userSpaceOnUse">
<stop stop-color="#FBF7B8"/>
<stop offset="1" stop-color="#F7CDE1"/>
</linearGradient>
<linearGradient id="paint3_linear_2_405" x1="283.145" y1="119.837" x2="262.945" y2="203.033" gradientUnits="userSpaceOnUse">
<stop stop-color="#FBF7B8"/>
<stop offset="1" stop-color="#F7CDE1"/>
</linearGradient>
<linearGradient id="paint4_linear_2_405" x1="25.8471" y1="291" x2="124.107" y2="366.138" gradientUnits="userSpaceOnUse">
<stop stop-color="#E12B8F"/>
<stop offset="1" stop-color="#F7B008"/>
</linearGradient>
<linearGradient id="paint5_linear_2_405" x1="54.8855" y1="201.665" x2="223.384" y2="268.526" gradientUnits="userSpaceOnUse">
<stop stop-color="#E12B8F"/>
<stop offset="1" stop-color="#F7B008"/>
</linearGradient>
<linearGradient id="paint6_linear_2_405" x1="92.479" y1="164.777" x2="215.578" y2="211.563" gradientUnits="userSpaceOnUse">
<stop stop-color="#E12B8F"/>
<stop offset="1" stop-color="#F7B008"/>
</linearGradient>
</defs>
</svg>
