<svg width="825" height="809" viewBox="0 0 825 809" fill="none" xmlns="http://www.w3.org/2000/svg">
<g clip-path="url(#clip0_2_338)">
<path d="M300.732 95.8651C304.196 71.2022 326.992 54.0161 351.648 57.4791L584.604 90.1997C609.259 93.6627 626.439 116.464 622.974 141.127L545.71 691.213C542.246 715.876 519.45 733.062 494.795 729.599L261.839 696.878C237.183 693.415 220.004 670.614 223.468 645.952L300.732 95.8651Z" fill="#0096D1" fill-opacity="0.19"/>
<path d="M311.254 109.348C314.718 84.6854 337.513 67.4993 362.169 70.9623L397.758 75.9611C407.063 77.268 415.309 82.6323 420.277 90.6095C425.246 98.5863 433.493 103.951 442.797 105.258L488.141 111.626C496.226 112.762 504.308 109.526 509.379 103.124C514.45 96.722 522.531 93.4865 530.62 94.6226L571.18 100.32C595.835 103.783 613.015 126.584 609.551 151.247L535.594 677.787C532.13 702.449 509.334 719.636 484.679 716.173L275.668 686.816C251.012 683.352 233.833 660.551 237.297 635.889L311.254 109.348Z" fill="#E12B8F"/>
<path d="M305.615 102.347C309.079 77.6838 331.875 60.4977 356.531 63.9608L398.997 69.9254C408.083 71.2017 416.177 76.337 421.204 84.015C426.231 91.6929 434.325 96.8283 443.411 98.1046L489.571 104.588C497.414 105.69 505.263 102.638 510.305 96.5299C515.347 90.4217 523.2 87.3708 531.041 88.4721L578.123 95.0852C602.778 98.5482 619.958 121.349 616.494 146.012L615.696 151.696L304.817 108.03L305.615 102.347Z" fill="white"/>
<path d="M304.817 108.03L615.696 151.696L604.976 228.018L294.097 184.352L304.817 108.03Z" fill="white"/>
<path d="M294.097 184.352L604.976 228.018L563.065 526.404L252.186 482.739L294.097 184.352Z" fill="#ACD6E7"/>
<path d="M252.187 482.739L563.065 526.404L540.827 684.731C537.363 709.394 514.567 726.58 489.911 723.117L268.319 691.993C243.663 688.53 226.484 665.729 229.948 641.066L252.187 482.739Z" fill="white"/>
<path fill-rule="evenodd" clip-rule="evenodd" d="M253.593 564.063C253.914 561.823 255.992 560.265 258.232 560.587L538.151 600.745C540.39 601.067 541.948 603.145 541.625 605.385C541.302 607.625 539.225 609.183 536.986 608.861L257.067 568.703C254.828 568.381 253.272 566.303 253.593 564.063Z" fill="#E12B8F"/>
<path fill-rule="evenodd" clip-rule="evenodd" d="M249.999 589.651C250.314 587.41 252.386 585.847 254.628 586.162L366.236 601.838C368.477 602.153 370.039 604.227 369.724 606.468C369.409 608.709 367.337 610.272 365.095 609.957L253.487 594.281C251.246 593.966 249.684 591.892 249.999 589.651Z" fill="#E12B8F"/>
<path fill-rule="evenodd" clip-rule="evenodd" d="M246.578 614.009C246.892 611.769 248.965 610.205 251.206 610.52L447.636 638.11C449.877 638.425 451.439 640.499 451.125 642.74C450.81 644.981 448.736 646.544 446.496 646.229L250.066 618.639C247.824 618.324 246.263 616.25 246.578 614.009Z" fill="#E12B8F"/>
<path fill-rule="evenodd" clip-rule="evenodd" d="M376.217 607.38C376.532 605.139 378.605 603.575 380.846 603.89L534.662 625.495C536.902 625.809 538.465 627.884 538.15 630.125C537.836 632.365 535.762 633.929 533.522 633.614L379.706 612.009C377.464 611.695 375.903 609.621 376.217 607.38Z" fill="#E12B8F"/>
<path d="M331.344 523.274C330.822 523.015 330.858 522.722 331.447 522.614L352.397 518.751C352.977 518.646 353.251 518.999 353.02 519.521L344.49 538.732C344.255 539.266 343.932 539.242 343.771 538.681L341.42 530.456C341.281 529.973 341.415 529.449 341.773 529.09C342.911 527.946 341.456 526.139 340.043 526.918C339.639 527.143 339.146 527.156 338.732 526.949L331.344 523.274Z" fill="#E12B8F"/>
<path d="M523.288 544.414C523.383 543.74 524.003 543.272 524.677 543.367L541.317 545.704C541.99 545.799 542.458 546.419 542.363 547.093L540.151 562.845C540.019 563.782 538.922 564.228 538.176 563.644L531.65 558.542C531.304 558.269 530.841 558.204 530.433 558.371L522.754 561.477C521.876 561.834 520.944 561.103 521.076 560.165L523.288 544.414Z" fill="#E12B8F"/>
<path d="M281.446 506.305C284.652 506.756 286.88 509.755 286.362 513.441C285.404 520.266 278.047 523.43 274.689 524.822C274.238 525.011 273.726 524.939 273.344 524.633C270.5 522.37 264.3 517.302 265.258 510.477C265.776 506.791 268.784 504.527 271.95 504.971C273.912 505.247 275.495 506.542 276.402 507.745C277.606 506.838 279.484 506.03 281.446 506.305Z" fill="#E12B8F"/>
<path d="M302.372 528.619L298.578 528.918C297.681 528.991 297.014 528.102 297.329 527.26L298.664 523.697C298.066 522.061 297.881 520.304 298.125 518.583C298.939 512.79 304.292 508.757 310.082 509.57C315.873 510.383 319.907 515.735 319.094 521.529C318.28 527.322 312.927 531.355 307.136 530.542C305.414 530.304 303.777 529.644 302.372 528.619Z" fill="#E12B8F"/>
<path d="M371.292 156.281C369.15 171.527 355.058 182.151 339.817 180.011C324.575 177.87 313.955 163.775 316.097 148.528C318.238 133.282 332.33 122.658 347.572 124.799C362.813 126.94 373.433 141.035 371.292 156.281Z" fill="#0096D1"/>
<path fill-rule="evenodd" clip-rule="evenodd" d="M390.981 148.697C391.295 146.455 393.368 144.893 395.609 145.207L515.74 162.081C517.98 162.395 519.543 164.468 519.228 166.71C518.913 168.953 516.84 170.515 514.6 170.2L394.469 153.327C392.227 153.012 390.666 150.939 390.981 148.697Z" fill="#E12B8F"/>
<path fill-rule="evenodd" clip-rule="evenodd" d="M388.187 168.589C388.502 166.347 390.574 164.785 392.815 165.1L454.504 173.764C456.746 174.079 458.307 176.152 457.992 178.394C457.677 180.636 455.605 182.199 453.364 181.884L391.675 173.219C389.433 172.904 387.872 170.832 388.187 168.589Z" fill="#E12B8F"/>
<path d="M651.388 343.205L627.531 375.43L626.79 376.431C622.065 382.847 624.694 392 632.105 394.926L638.849 397.59C644.856 399.961 651.665 397.215 654.348 391.341L656.052 387.61L663.988 380.551L676.81 370.705L682.699 343.333L659.017 340.007C656.079 339.594 653.154 340.822 651.388 343.205Z" fill="#DD9576"/>
<path d="M666.743 332.918L679.823 334.756C681.292 334.962 682.386 336.219 682.389 337.703L682.426 359.716C682.425 360.249 682.571 360.773 682.842 361.231L690.166 373.588C690.51 374.17 690.65 374.853 690.556 375.524L686.234 406.293C685.623 410.641 680.685 412.86 677.028 410.43L674.008 408.42C672.872 407.666 672.028 406.544 671.619 405.244L659.348 366.21C659.217 365.787 659.18 365.34 659.242 364.901L663.377 335.456C663.606 333.826 665.111 332.689 666.743 332.918Z" fill="#E12B8F"/>
<path fill-rule="evenodd" clip-rule="evenodd" d="M689.233 348.079C687.688 346.027 684.77 345.617 682.72 347.165L670.838 356.121C668.787 357.669 668.377 360.587 669.922 362.639C671.467 364.692 674.386 365.101 676.44 363.555L688.318 354.597C690.373 353.051 690.782 350.133 689.233 348.079Z" fill="#DD9576"/>
<path fill-rule="evenodd" clip-rule="evenodd" d="M685.554 339.389C684.005 337.336 681.091 336.927 679.036 338.474L667.158 347.431C665.103 348.978 664.694 351.896 666.243 353.949C667.788 356.001 670.706 356.411 672.757 354.864L684.638 345.907C686.689 344.36 687.099 341.442 685.554 339.389Z" fill="#DD9576"/>
<path fill-rule="evenodd" clip-rule="evenodd" d="M691.828 355.8C690.283 353.748 687.365 353.338 685.31 354.885L673.432 363.842C671.377 365.389 670.968 368.307 672.517 370.36C674.062 372.412 676.98 372.822 679.031 371.275L690.912 362.318C692.963 360.771 693.373 357.852 691.828 355.8Z" fill="#DD9576"/>
<path fill-rule="evenodd" clip-rule="evenodd" d="M694.418 363.52C692.873 361.468 689.955 361.058 687.905 362.605L676.023 371.562C673.972 373.109 673.562 376.027 675.107 378.08C676.657 380.133 679.571 380.542 681.625 378.995L693.503 370.038C695.558 368.491 695.968 365.573 694.418 363.52Z" fill="#DD9576"/>
<path fill-rule="evenodd" clip-rule="evenodd" d="M688.837 353.79C688.648 353.51 688.265 353.437 687.986 353.628L673.302 363.622C673.023 363.813 672.948 364.195 673.141 364.476C673.333 364.757 673.712 364.829 673.995 364.639L688.675 354.645C688.955 354.454 689.029 354.071 688.837 353.79ZM691.777 361.969C691.584 361.688 691.202 361.614 690.922 361.805L676.927 371.282C676.644 371.472 676.57 371.854 676.762 372.136C676.95 372.417 677.333 372.49 677.616 372.3L691.611 362.823C691.895 362.633 691.965 362.25 691.777 361.969Z" fill="#CD764F"/>
<path fill-rule="evenodd" clip-rule="evenodd" d="M684.671 345.645C684.479 345.364 684.096 345.291 683.817 345.482L669.136 355.476C668.853 355.667 668.783 356.05 668.975 356.331C669.163 356.611 669.546 356.684 669.825 356.493L684.51 346.499C684.789 346.308 684.863 345.926 684.671 345.645Z" fill="#CD764F"/>
<path d="M473.465 260.816C488.046 277.811 509.788 358.525 509.793 416.657L324.662 422.594C320.712 407.56 308.539 398.205 312.597 381.933C324.293 335.026 368.044 317.626 374.183 305.925C380.321 294.225 389.239 265.595 412.165 252.207C435.091 238.818 461.703 247.109 473.465 260.816Z" fill="#744F3A"/>
<path d="M598.124 459.974L491.431 376.608C478.424 366.446 459.643 368.755 449.482 381.766L449.482 381.766C439.321 394.777 441.628 413.563 454.635 423.726L561.328 507.091C574.334 517.254 593.115 514.945 603.276 501.934L603.276 501.934C613.437 488.923 611.13 470.137 598.124 459.974Z" fill="url(#paint0_linear_2_338)"/>
<path d="M551.497 471.046L625.59 374.778L656.595 388.22L602.786 501.953C594.907 515.033 577.041 518.717 562.877 510.183C548.713 501.648 543.618 484.125 551.497 471.046Z" fill="url(#paint1_linear_2_338)"/>
<path d="M388.454 406.828L326.625 493.471L261.793 485.077L344.891 372.79C354.525 360.454 372.086 358.074 384.116 367.473C396.145 376.873 398.087 394.493 388.454 406.828Z" fill="url(#paint2_linear_2_338)"/>
<path d="M348.856 397.211L361.283 499.254L465.294 513.864L489.606 444.343C490.921 440.579 491.864 436.695 492.419 432.746L497.216 398.591C499.156 384.781 488.955 372.75 475.064 371.588L373.873 362.538C371.164 362.311 368.447 362.872 366.048 364.152C354.041 370.562 347.21 383.697 348.856 397.211Z" fill="url(#paint3_linear_2_338)"/>
<path d="M393.263 503.705L425.841 389.56L431.851 390.405L443.746 510.796L393.263 503.705Z" fill="#F7B008"/>
<path d="M421.412 366.709L382.985 363.968L381.455 370.162C378.89 380.552 386.928 390.527 397.622 390.225L427.215 389.388L421.412 366.709Z" fill="#FCF6F9"/>
<path d="M444.848 368.57L467.598 370.948L467.912 371.6C473.841 383.927 462.758 397.598 449.475 394.343L430.048 389.581L444.848 368.57Z" fill="#FCF6F9"/>
<path fill-rule="evenodd" clip-rule="evenodd" d="M463.668 279.553C458.967 264.875 443.523 256.524 428.671 260.63C415.729 264.207 407.31 276.097 407.598 288.946C406.649 289.044 405.706 289.257 404.782 289.593C397.536 292.227 394.223 301.412 397.382 310.107C399.692 316.467 404.826 320.804 410.252 321.643L406.546 360.778C406.345 362.909 404.52 364.514 402.382 364.441L384.71 363.843C382.846 363.78 381.897 366.059 383.254 367.338L390.675 374.328C412.382 394.774 446.257 394.762 467.954 374.301C469.18 373.143 468.523 371.078 466.851 370.843L449.726 368.438C447.513 368.127 445.971 366.08 446.282 363.867L448.566 347.611C451.099 347.318 453.642 346.687 456.136 345.69C470.473 339.958 477.938 324.111 473.229 309.404L463.668 279.553Z" fill="#DD9576"/>
<path fill-rule="evenodd" clip-rule="evenodd" d="M446.363 363.298L448.566 347.611C448.662 347.6 448.757 347.588 448.853 347.576L448.566 347.611L439.252 345.7L446.363 363.298Z" fill="#171625"/>
<path fill-rule="evenodd" clip-rule="evenodd" d="M437.764 298.532C437.12 298.748 436.773 299.445 436.989 300.089L438.263 303.896C438.479 304.541 439.176 304.888 439.82 304.672C440.464 304.456 440.811 303.759 440.595 303.115L439.32 299.308C439.105 298.664 438.408 298.316 437.764 298.532Z" fill="#171625"/>
<path fill-rule="evenodd" clip-rule="evenodd" d="M458.144 294.245C457.5 294.461 457.153 295.158 457.369 295.802L458.643 299.609C458.859 300.254 459.556 300.601 460.2 300.385C460.844 300.169 461.191 299.472 460.975 298.828L459.7 295.021C459.485 294.377 458.788 294.029 458.144 294.245Z" fill="#171625"/>
<path fill-rule="evenodd" clip-rule="evenodd" d="M451.277 299.137C450.962 299.263 450.808 299.621 450.934 299.936L455.847 312.266L451.109 312.232C450.769 312.23 450.492 312.503 450.49 312.843C450.487 313.182 450.761 313.46 451.1 313.462L456.752 313.503C456.957 313.504 457.148 313.404 457.264 313.234C457.38 313.066 457.403 312.85 457.327 312.66L452.076 299.481C451.951 299.165 451.593 299.011 451.277 299.137Z" fill="#CD764F"/>
<path d="M451.436 320.837C453.311 321.633 454.221 323.886 452.745 325.29C451.931 326.065 450.971 326.688 449.91 327.117C447.693 328.014 445.21 327.992 443.009 327.058C440.808 326.123 439.068 324.353 438.172 322.135C437.743 321.073 437.524 319.95 437.516 318.826C437.5 316.788 439.752 315.878 441.627 316.674L451.436 320.837Z" fill="white"/>
<path fill-rule="evenodd" clip-rule="evenodd" d="M404.468 301.376L404.469 301.376L404.475 301.376L404.502 301.376C404.527 301.376 404.564 301.375 404.613 301.375C404.71 301.374 404.852 301.375 405.029 301.379C405.384 301.386 405.876 301.407 406.424 301.459C407.547 301.566 408.812 301.798 409.649 302.257C409.827 302.355 410.001 302.471 410.17 302.604C410.099 302.605 410.027 302.605 409.954 302.606C408.984 302.619 407.718 302.713 406.751 303.077C406.236 303.271 405.648 303.601 405.208 303.867C404.984 304.003 404.79 304.127 404.651 304.218C404.582 304.263 404.526 304.3 404.488 304.326C404.468 304.339 404.453 304.349 404.443 304.356L404.431 304.364L404.427 304.367L404.426 304.368C404.426 304.368 404.426 304.368 404.751 304.841L404.426 304.368C404.146 304.56 404.075 304.943 404.267 305.223C404.459 305.502 404.842 305.574 405.122 305.382M405.122 305.382L405.124 305.38L405.134 305.373C405.142 305.367 405.156 305.359 405.173 305.347C405.208 305.323 405.259 305.289 405.324 305.247C405.453 305.162 405.635 305.046 405.844 304.92C406.273 304.661 406.781 304.38 407.184 304.228C407.939 303.944 409.022 303.849 409.97 303.836C410.434 303.83 410.846 303.843 411.142 303.858C411.215 303.862 411.281 303.865 411.339 303.869C412.149 304.999 412.756 306.415 413.169 307.602C413.388 308.229 413.548 308.781 413.654 309.175C413.707 309.372 413.746 309.529 413.771 309.636C413.784 309.689 413.793 309.73 413.799 309.757L413.806 309.787L413.808 309.794L413.808 309.795C413.88 310.127 414.207 310.338 414.539 310.266C414.871 310.195 415.082 309.868 415.01 309.536L414.409 309.665C415.01 309.536 415.01 309.536 415.01 309.536L415.009 309.531L415.007 309.521L414.999 309.485C414.991 309.453 414.981 309.407 414.967 309.349C414.939 309.233 414.897 309.065 414.841 308.856C414.729 308.439 414.561 307.859 414.33 307.198C413.874 305.887 413.162 304.217 412.153 302.902C411.621 302.209 410.988 301.589 410.24 301.179C409.169 300.591 407.688 300.344 406.541 300.235C405.955 300.179 405.432 300.157 405.055 300.149C404.867 300.145 404.714 300.145 404.607 300.145C404.554 300.145 404.513 300.146 404.484 300.146L404.45 300.147L404.441 300.147L404.437 300.147C404.437 300.147 404.437 300.147 404.452 300.762L404.437 300.147C404.097 300.156 403.829 300.438 403.838 300.777C403.846 301.117 404.128 301.385 404.468 301.376" fill="#CD764F"/>
<path d="M419.389 261.459C429.537 254.911 443.538 249.106 455.291 256.952C462.486 261.756 465.917 278.287 465.917 278.287C465.917 278.287 454.457 260.092 446.671 268.76C430.955 286.257 422.028 273.711 418.628 284.91C416.407 292.228 419.389 304.478 419.389 304.478C419.389 304.478 414.861 294.885 409.971 290.461C405.515 286.429 396.569 282.902 396.569 282.902C396.569 282.902 410.245 267.358 419.389 261.459Z" fill="#744F3A"/>
<path d="M415.012 320.651C414.562 323.86 411.595 326.097 408.387 325.646C405.179 325.195 402.943 322.229 403.394 319.019C403.845 315.81 406.811 313.573 410.019 314.024C413.228 314.475 415.463 317.442 415.012 320.651Z" fill="#F7B008"/>
<path d="M411.686 329.788C411.406 331.78 409.565 333.168 407.574 332.888C405.582 332.608 404.195 330.767 404.475 328.775C404.755 326.783 406.595 325.394 408.587 325.674C410.578 325.954 411.966 327.796 411.686 329.788Z" fill="#F7B008"/>
<path d="M634.49 329.449L629.48 312.224C627.94 306.924 630.165 301.251 634.901 298.415L754.085 227.03C761.08 222.841 770.132 226.603 772.1 234.517L792.534 316.767C794.383 324.198 788.976 331.463 781.327 331.824L646.717 338.183C641.114 338.448 636.059 334.837 634.49 329.449Z" fill="#E12B8F"/>
<path d="M793.763 271.744C802.034 300.815 799.069 327.135 787.141 330.531C775.213 333.926 758.838 313.112 750.572 284.041C742.302 254.97 745.266 228.651 757.194 225.255C769.123 221.859 785.497 242.673 793.763 271.744Z" fill="#171625"/>
<path fill-rule="evenodd" clip-rule="evenodd" d="M430.218 391.6C429.81 391.997 429.603 392.526 429.648 393.305C429.65 393.336 429.652 393.369 429.655 393.401C429.699 393.492 429.75 393.6 429.807 393.723C430.016 394.167 430.311 394.811 430.659 395.616C430.979 396.355 431.344 397.23 431.729 398.209C433.126 400.343 435.145 402.745 437.576 405.245C440.703 408.459 443.781 411.085 446.372 412.565C447.672 413.308 448.765 413.713 449.626 413.811C450.45 413.905 450.982 413.716 451.366 413.343C451.784 412.935 452.157 412.133 452.291 410.861C452.424 409.618 452.31 408.069 451.912 406.362C451.119 402.948 449.237 399.076 446.251 396.006C443.271 392.944 439.765 391.265 436.708 390.671C435.179 390.373 433.789 390.353 432.652 390.545C431.503 390.74 430.693 391.138 430.218 391.6ZM433.174 402.2C434.222 403.469 435.407 404.778 436.695 406.102C443.009 412.593 449.384 416.987 452.224 414.224C455.062 411.461 453.445 401.639 447.132 395.148C440.818 388.658 432.2 387.956 429.36 390.719C429.236 390.84 429.125 390.967 429.026 391.101C428.976 390.979 428.916 390.859 428.849 390.74C426.881 387.302 418.402 385.602 410.545 390.103C402.688 394.603 398.427 403.599 400.395 407.037C402.363 410.475 409.703 408.008 417.56 403.507C419.245 402.542 420.817 401.562 422.228 400.583C419.091 405.005 415.756 410.779 415.181 416.026C414.8 419.506 415.512 423.88 416.298 427.335C416.693 429.073 417.111 430.597 417.431 431.688C417.59 432.233 417.726 432.67 417.821 432.972C417.869 433.123 417.907 433.24 417.933 433.319C417.946 433.359 417.956 433.39 417.963 433.41L417.971 433.434L417.973 433.44L417.973 433.442L417.973 433.443C417.973 433.443 417.974 433.443 418.556 433.247L417.974 433.443C418.082 433.765 418.431 433.938 418.752 433.829C419.074 433.721 419.247 433.372 419.139 433.05L419.138 433.049L419.137 433.044L419.129 433.023C419.123 433.004 419.114 432.975 419.101 432.937C419.077 432.861 419.04 432.747 418.993 432.6C418.9 432.306 418.768 431.878 418.61 431.342C418.296 430.27 417.885 428.77 417.497 427.062C416.716 423.628 416.046 419.424 416.404 416.159C416.944 411.223 420.143 405.637 423.279 401.227C424.267 399.838 425.241 398.576 426.111 397.499C427.112 396.555 427.906 395.631 428.446 394.742C428.504 394.677 428.56 394.615 428.613 394.556C428.935 395.812 429.634 397.238 430.63 398.774C431.062 399.879 431.516 401.115 431.956 402.435C433.651 407.523 435.089 413.765 434.254 418.667C433.702 421.909 431.951 425.776 430.306 428.87C429.489 430.409 428.706 431.74 428.128 432.688C427.839 433.161 427.601 433.538 427.436 433.796C427.354 433.925 427.289 434.024 427.246 434.09C427.224 434.123 427.207 434.149 427.196 434.165L427.184 434.184L427.182 434.188L427.181 434.189C426.993 434.472 427.07 434.854 427.352 435.042C427.635 435.23 428.017 435.153 428.204 434.87L427.693 434.53C428.204 434.87 428.204 434.87 428.204 434.87L428.205 434.87L428.206 434.868L428.21 434.863L428.223 434.842C428.235 434.824 428.253 434.797 428.275 434.762C428.321 434.693 428.387 434.591 428.472 434.458C428.641 434.194 428.883 433.81 429.177 433.329C429.765 432.366 430.56 431.012 431.392 429.447C433.047 426.334 434.879 422.321 435.466 418.874C436.347 413.703 434.857 407.29 433.174 402.2ZM416.949 402.44C420.357 400.488 423.228 398.511 425.208 396.661C425.699 396.054 426.156 395.507 426.564 395.031C426.894 394.644 427.192 394.302 427.45 394.012C427.629 393.707 427.765 393.418 427.86 393.147C428.117 392.41 428.064 391.845 427.782 391.351C427.452 390.776 426.784 390.17 425.732 389.666C424.692 389.168 423.35 388.805 421.798 388.67C418.696 388.399 414.863 389.047 411.156 391.17C407.439 393.299 404.563 396.502 402.86 399.566C402.009 401.097 401.473 402.554 401.257 403.786C401.036 405.045 401.172 405.919 401.462 406.426C401.728 406.891 402.188 407.219 403.005 407.356C403.86 407.499 405.023 407.41 406.477 407.055C409.375 406.345 413.058 404.669 416.949 402.44Z" fill="#171625"/>
<path d="M518.893 210.348C519.76 204.177 525.462 199.876 531.631 200.743L623.742 213.68C629.911 214.547 634.209 220.252 633.342 226.423L625.455 282.572C624.588 288.744 618.886 293.044 612.717 292.178L531.657 280.792C528.228 280.31 524.731 280.894 521.643 282.463L517.418 284.608C513.354 286.674 508.645 283.31 509.279 278.794L509.437 277.671L518.893 210.348Z" fill="#0096D1"/>
<path fill-rule="evenodd" clip-rule="evenodd" d="M539.224 226.269C538.887 226.222 538.577 226.457 538.53 226.793C538.482 227.129 538.716 227.44 539.053 227.487L611.476 237.66C611.813 237.707 612.123 237.472 612.171 237.136C612.218 236.8 611.984 236.489 611.647 236.442L539.224 226.269ZM536.963 242.369C536.626 242.321 536.316 242.556 536.268 242.892C536.221 243.229 536.455 243.539 536.792 243.586L564.507 247.479C564.844 247.527 565.154 247.292 565.201 246.956C565.248 246.62 565.015 246.309 564.678 246.261L536.963 242.369ZM571.362 247.821C571.409 247.485 571.719 247.25 572.056 247.298L609.609 252.572C609.946 252.62 610.18 252.931 610.133 253.267C610.085 253.603 609.775 253.838 609.438 253.79L571.885 248.516C571.548 248.468 571.315 248.158 571.362 247.821ZM534.702 258.468C534.365 258.42 534.054 258.655 534.007 258.991C533.96 259.328 534.194 259.638 534.53 259.685L606.954 269.858C607.291 269.905 607.601 269.671 607.648 269.334C607.695 268.998 607.462 268.687 607.125 268.64L534.702 258.468Z" fill="white"/>
<path d="M306.349 294.535C303.011 318.301 281.044 334.862 257.285 331.525C233.526 328.188 216.972 306.216 220.31 282.45C223.648 258.684 245.615 242.123 269.374 245.46C293.133 248.797 309.687 270.769 306.349 294.535Z" fill="#E12B8F"/>
<path d="M283.201 291.284C281.659 302.262 271.512 309.912 260.537 308.371C249.562 306.829 241.915 296.68 243.457 285.701C244.999 274.723 255.146 267.073 266.121 268.615C277.096 270.156 284.743 280.306 283.201 291.284Z" fill="white"/>
<path d="M267.977 281.795C270.432 282.14 272.139 284.426 271.745 287.236C271.03 292.325 265.625 294.742 262.984 295.837C262.535 296.023 262.018 295.95 261.638 295.647C259.401 293.867 254.87 290.055 255.585 284.967C255.98 282.156 258.282 280.433 260.706 280.774C262.209 280.985 263.421 281.973 264.116 282.89C265.037 282.2 266.474 281.584 267.977 281.795Z" fill="#E12B8F"/>
<path d="M348.651 220.411C349.613 219.053 351.706 219.347 352.256 220.918L355.663 230.628C355.782 230.968 355.989 231.27 356.262 231.505L362.987 237.275C364.122 238.249 363.866 240.071 362.507 240.694L354.651 244.297C354.2 244.503 353.84 244.866 353.637 245.317L346.871 260.312C346.028 262.179 343.271 261.792 342.975 259.765L340.602 243.486C340.531 242.996 340.284 242.549 339.908 242.226L333.349 236.599C332.214 235.625 332.47 233.803 333.829 233.18L341.883 229.485C342.211 229.335 342.493 229.102 342.701 228.808L348.651 220.411Z" fill="white"/>
<path d="M546.296 338.032C547.258 336.668 549.36 336.964 549.908 338.54L551.52 343.18C551.638 343.52 551.844 343.823 552.117 344.058L555.373 346.866C556.499 347.839 556.244 349.653 554.894 350.278L551.189 351.99C550.738 352.197 550.381 352.559 550.177 353.01L547.039 359.999C546.201 361.871 543.437 361.483 543.143 359.451L542.052 351.869C541.98 351.379 541.736 350.932 541.36 350.609L538.27 347.943C537.145 346.97 537.399 345.156 538.75 344.531L542.653 342.729C542.98 342.578 543.261 342.343 543.468 342.049L546.296 338.032Z" fill="#0096D1"/>
<path d="M184.447 126.024C185.409 124.666 187.502 124.96 188.052 126.53L191.459 136.241C191.578 136.581 191.785 136.883 192.058 137.118L198.783 142.888C199.918 143.861 199.662 145.683 198.303 146.307L190.447 149.91C189.996 150.116 189.636 150.479 189.433 150.93L182.667 165.925C181.824 167.792 179.067 167.405 178.771 165.378L176.398 149.099C176.327 148.609 176.08 148.161 175.704 147.839L169.145 142.211C168.01 141.238 168.266 139.416 169.625 138.792L177.679 135.098C178.007 134.948 178.289 134.714 178.497 134.42L184.447 126.024Z" fill="#E12B8F"/>
<path d="M646.447 725.024C647.409 723.666 649.502 723.96 650.052 725.53L653.459 735.241C653.578 735.581 653.785 735.883 654.058 736.118L660.783 741.888C661.918 742.861 661.662 744.683 660.303 745.307L652.447 748.91C651.996 749.116 651.636 749.479 651.433 749.93L644.667 764.925C643.824 766.792 641.067 766.405 640.771 764.378L638.398 748.099C638.327 747.609 638.08 747.161 637.704 746.839L631.145 741.211C630.01 740.238 630.266 738.416 631.625 737.792L639.679 734.098C640.007 733.948 640.289 733.714 640.497 733.42L646.447 725.024Z" fill="#F7B008"/>
</g>
<defs>
<linearGradient id="paint0_linear_2_338" x1="203.075" y1="224.27" x2="308.435" y2="138.871" gradientUnits="userSpaceOnUse">
<stop stop-color="#E12B8F"/>
<stop offset="1" stop-color="#F7B008"/>
</linearGradient>
<linearGradient id="paint1_linear_2_338" x1="898.09" y1="378.714" x2="739.804" y2="229.538" gradientUnits="userSpaceOnUse">
<stop stop-color="#E12B8F"/>
<stop offset="1" stop-color="#F7B008"/>
</linearGradient>
<linearGradient id="paint2_linear_2_338" x1="-151.209" y1="533.506" x2="287.098" y2="950.403" gradientUnits="userSpaceOnUse">
<stop stop-color="#E12B8F"/>
<stop offset="1" stop-color="#F7B008"/>
</linearGradient>
<linearGradient id="paint3_linear_2_338" x1="222.844" y1="262.935" x2="532.526" y2="383.192" gradientUnits="userSpaceOnUse">
<stop stop-color="#E12B8F"/>
<stop offset="1" stop-color="#F7B008"/>
</linearGradient>
<clipPath id="clip0_2_338">
<rect width="917.201" height="687.901" fill="white" transform="translate(95.6821) rotate(7.99534)"/>
</clipPath>
</defs>
</svg>
