<svg width="37" height="28" viewBox="0 0 37 28" fill="none" xmlns="http://www.w3.org/2000/svg">
<path d="M36.299 9.24583C36.5809 9.01979 37 9.23125 37 9.58854V24.5C37 26.4323 35.4463 28 33.5312 28H3.46875C1.55371 28 0 26.4323 0 24.5V9.59583C0 9.23125 0.411914 9.02708 0.700977 9.25312C2.31973 10.5219 4.46602 12.1333 11.8371 17.5365C13.3619 18.6594 15.9346 21.0219 18.5 21.0073C21.0799 21.0292 23.7031 18.6156 25.1701 17.5365C32.5412 12.1333 34.6803 10.5146 36.299 9.24583ZM18.5 18.6667C20.1766 18.6958 22.5902 16.5375 23.8043 15.6479C33.3939 8.62604 34.1238 8.01354 36.3352 6.26354C36.7543 5.93542 37 5.425 37 4.88542V3.5C37 1.56771 35.4463 0 33.5312 0H3.46875C1.55371 0 0 1.56771 0 3.5V4.88542C0 5.425 0.245703 5.92812 0.664844 6.26354C2.87617 8.00625 3.60606 8.62604 13.1957 15.6479C14.4098 16.5375 16.8234 18.6958 18.5 18.6667Z" fill="#0096D1"/>
</svg>
