<svg width="32" height="42" viewBox="0 0 32 42" fill="none" xmlns="http://www.w3.org/2000/svg">
<path d="M10.8697 1.79051C11.3392 0.194323 13.4144 -0.206181 14.4443 1.10064L20.8153 9.18213C21.0385 9.46513 21.332 9.68405 21.6666 9.81737L29.8991 13.0951C31.2881 13.6483 31.6368 15.4548 30.5534 16.4852L24.2899 22.4408C23.9308 22.7819 23.7077 23.2416 23.6613 23.7345L22.123 40.1133C21.9314 42.1527 19.197 42.6804 18.2603 40.8588L10.7373 26.2288C10.5109 25.7886 10.1327 25.4448 9.6725 25.2619L1.64299 22.0648C0.253597 21.5117 -0.0950549 19.7051 0.988729 18.6747L7.4098 12.5689C7.67116 12.3205 7.86215 12.0081 7.96365 11.6624L10.8697 1.79051Z" fill="#E12B8F"/>
</svg>
