<svg width="655" height="492" viewBox="0 0 655 492" fill="none" xmlns="http://www.w3.org/2000/svg">
<path d="M227.042 159.462C227.042 157.31 228.787 155.565 230.939 155.565H277.302C279.454 155.565 281.198 157.31 281.198 159.462C281.198 161.615 279.454 163.36 277.302 163.36H230.939C228.787 163.36 227.042 161.615 227.042 159.462Z" fill="#FBC3DE"/>
<path fill-rule="evenodd" clip-rule="evenodd" d="M253.638 159.88C248.638 160.265 244.435 163.912 243.399 168.892L228.597 240.095C228.498 240.57 228.033 240.875 227.558 240.776C227.084 240.677 226.779 240.212 226.877 239.737L241.68 168.535C242.945 162.451 248.305 158.09 254.516 158.09C260 158.09 264.789 161.8 266.162 167.11L284.927 239.696C285.048 240.166 284.766 240.645 284.296 240.766C283.827 240.888 283.348 240.606 283.226 240.136L264.462 167.55C263.363 163.3 259.704 160.251 255.395 159.884V239.916C255.395 240.401 255.001 240.794 254.516 240.794C254.032 240.794 253.638 240.401 253.638 239.916V159.88Z" fill="#FBC3DE"/>
<path d="M235.519 118.136C235.519 117.406 236.11 116.815 236.839 116.815H244.322C245.051 116.815 245.642 117.406 245.642 118.136V122.098C245.642 122.828 245.051 123.419 244.322 123.419H236.839C236.11 123.419 235.519 122.828 235.519 122.098V118.136Z" fill="#FFE29D"/>
<path d="M273.958 120.337C273.958 119.607 274.55 119.016 275.279 119.016H278.653C279.383 119.016 279.974 119.607 279.974 120.337V122.098C279.974 122.827 279.383 123.419 278.653 123.419H275.279C274.55 123.419 273.958 122.827 273.958 122.098V120.337Z" fill="#FFE29D"/>
<path d="M225.689 123.367C225.689 122.18 226.651 121.218 227.837 121.218H245.445C246.039 121.218 246.606 120.972 247.012 120.538L251.241 116.026C251.647 115.593 252.215 115.347 252.809 115.347H263.473C264.12 115.347 264.732 115.639 265.14 116.141L268.619 120.424C269.027 120.926 269.639 121.218 270.286 121.218H280.026C281.213 121.218 282.175 122.18 282.175 123.367V153.264C282.175 154.45 281.213 155.413 280.026 155.413H227.837C226.651 155.413 225.689 154.45 225.689 153.264V123.367Z" fill="#B8E1F1"/>
<path d="M225.689 122.486C225.689 121.299 226.651 120.337 227.837 120.337H238.652C239.839 120.337 240.801 121.299 240.801 122.486V154.291C240.801 155.478 239.839 156.44 238.652 156.44H227.837C226.651 156.44 225.689 155.478 225.689 154.291V122.486Z" fill="#C2BBFF"/>
<path d="M270.144 138.315C270.144 144.84 264.856 150.129 258.333 150.129C251.81 150.129 246.522 144.84 246.522 138.315C246.522 131.79 251.81 126.501 258.333 126.501C264.856 126.501 270.144 131.79 270.144 138.315Z" fill="#FBC3DE"/>
<path d="M268.383 138.315C268.383 143.867 263.883 148.368 258.333 148.368C252.782 148.368 248.283 143.867 248.283 138.315C248.283 132.763 252.782 128.262 258.333 128.262C263.883 128.262 268.383 132.763 268.383 138.315Z" fill="white"/>
<path d="M428.217 247.967H526.262V416.011C526.262 417.627 524.951 418.938 523.336 418.938H431.144C429.528 418.938 428.217 417.627 428.217 416.011V247.967Z" fill="#FFEFC9"/>
<path d="M194.666 244.454C194.666 242.029 196.631 240.063 199.056 240.063H533.579C536.005 240.063 537.969 242.029 537.969 244.454V253.529C537.969 255.955 536.005 257.921 533.579 257.921H199.056C196.631 257.921 194.666 255.955 194.666 253.529V244.454Z" fill="#FFEFC9"/>
<path fill-rule="evenodd" clip-rule="evenodd" d="M516.604 271.681H437.875C436.746 271.681 435.827 272.598 435.827 273.73V323.206C435.827 324.339 436.746 325.256 437.875 325.256H516.604C517.737 325.256 518.653 324.339 518.653 323.206V273.73C518.653 272.598 517.737 271.681 516.604 271.681ZM437.875 270.802C436.26 270.802 434.949 272.113 434.949 273.73V323.206C434.949 324.822 436.26 326.134 437.875 326.134H516.604C518.22 326.134 519.531 324.822 519.531 323.206V273.73C519.531 272.113 518.22 270.802 516.604 270.802H437.875Z" fill="white"/>
<path fill-rule="evenodd" clip-rule="evenodd" d="M516.604 335.795H437.875C436.746 335.795 435.827 336.711 435.827 337.844V387.32C435.827 388.453 436.746 389.37 437.875 389.37H516.604C517.737 389.37 518.653 388.453 518.653 387.32V337.844C518.653 336.711 517.737 335.795 516.604 335.795ZM437.875 334.917C436.26 334.917 434.949 336.228 434.949 337.844V387.32C434.949 388.937 436.26 390.248 437.875 390.248H516.604C518.22 390.248 519.531 388.937 519.531 387.32V337.844C519.531 336.228 518.22 334.917 516.604 334.917H437.875Z" fill="white"/>
<path fill-rule="evenodd" clip-rule="evenodd" d="M432.607 258.214C432.607 257.971 432.804 257.775 433.046 257.775H524.067C524.31 257.775 524.506 257.971 524.506 258.214C524.506 258.456 524.31 258.653 524.067 258.653H433.046C432.804 258.653 432.607 258.456 432.607 258.214Z" fill="white"/>
<path d="M482.947 282.22C482.947 285.292 480.459 287.782 477.386 287.782C474.316 287.782 471.825 285.292 471.825 282.22C471.825 279.148 474.316 276.657 477.386 276.657C480.459 276.657 482.947 279.148 482.947 282.22Z" fill="white"/>
<path d="M482.947 346.334C482.947 349.405 480.459 351.897 477.386 351.897C474.316 351.897 471.825 349.405 471.825 346.334C471.825 343.263 474.316 340.772 477.386 340.772C480.459 340.772 482.947 343.263 482.947 346.334Z" fill="white"/>
<path d="M337.425 151.198C336.994 147.705 339.716 144.623 343.234 144.623H381.779C384.732 144.623 387.223 146.825 387.586 149.759L397.844 232.609C398.277 236.102 395.552 239.184 392.034 239.184H353.492C350.536 239.184 348.046 236.982 347.683 234.049L337.425 151.198Z" fill="#FFE29D"/>
<path d="M292.418 121.788C292.418 118.554 295.04 115.933 298.271 115.933H440.217C443.451 115.933 446.07 118.554 446.07 121.788V204.639C446.07 207.873 443.451 210.494 440.217 210.494H298.271C295.04 210.494 292.418 207.873 292.418 204.639V121.788Z" fill="#FFE29D"/>
<path d="M343.781 210.201H394.267" stroke="white" stroke-width="3" stroke-linecap="round"/>
<path d="M292.418 121.788C292.418 118.554 295.04 115.933 298.271 115.933H440.217C443.451 115.933 446.07 118.554 446.07 121.788V192.05H292.418V121.788Z" fill="#FBC3DE"/>
<path d="M374.073 226.888H393.014C401.262 226.888 408.567 232.211 411.096 240.063H374.073V226.888Z" fill="#3F3F3F"/>
<path d="M179.885 125.594C180.95 143.159 198.393 156.773 210.934 156.773C223.475 156.773 231.835 139.575 231.835 127.622C231.835 115.669 226.274 105.101 212.518 103.051C198.763 101.002 178.715 106.272 179.885 125.594Z" fill="#744F3A"/>
<path fill-rule="evenodd" clip-rule="evenodd" d="M233.637 122.033C231.513 114.103 223.365 109.398 215.439 111.523C207.512 113.647 202.807 121.797 204.931 129.727L205.421 131.553C203.612 130.574 201.495 130.329 199.515 131.053C195.626 132.475 193.741 137.097 195.304 141.376C196.639 145.029 200.054 147.251 203.444 146.94L200.194 170.849C199.669 174.708 202.668 178.144 206.562 178.144H215.112C218.661 178.144 221.538 175.266 221.538 171.715V157.318C223.507 157.618 225.568 157.525 227.614 156.976C235.541 154.852 240.245 146.701 238.121 138.772L233.637 122.033Z" fill="#F9E0CE"/>
<path d="M205.579 142.479C205.579 142.479 205.419 139.955 204.465 138.228M204.465 138.228C204.214 137.775 203.908 137.376 203.536 137.093C202.442 136.259 200.195 135.979 200.195 135.979M204.465 138.228C204.465 138.228 202.631 137.778 201.494 138.022C200.888 138.151 200.009 138.579 200.009 138.579" stroke="#F7B008" stroke-width="3" stroke-linecap="round" stroke-linejoin="round"/>
<path fill-rule="evenodd" clip-rule="evenodd" d="M230.673 127.618C230.198 127.713 229.889 128.176 229.985 128.651L230.424 130.851C230.519 131.326 230.982 131.635 231.457 131.539C231.933 131.444 232.241 130.981 232.146 130.506L231.706 128.307C231.611 127.831 231.149 127.522 230.673 127.618Z" fill="#3F3F3F"/>
<path fill-rule="evenodd" clip-rule="evenodd" d="M230.006 138.79C229.783 138.886 229.681 139.145 229.777 139.367L230.18 139.193C229.777 139.367 229.777 139.367 229.777 139.367L229.778 139.368L229.778 139.37L229.78 139.375C229.782 139.379 229.785 139.385 229.788 139.392C229.794 139.406 229.803 139.425 229.815 139.45C229.838 139.5 229.873 139.569 229.917 139.653C230.006 139.822 230.138 140.054 230.312 140.307C230.652 140.803 231.179 141.423 231.886 141.783C232.57 142.132 233.192 142.217 233.649 142.212C233.876 142.209 234.063 142.184 234.195 142.159C234.262 142.146 234.315 142.133 234.354 142.122C234.373 142.117 234.389 142.112 234.401 142.109C234.407 142.107 234.412 142.105 234.416 142.104L234.421 142.102L234.423 142.102L234.424 142.102L234.425 142.101C234.425 142.101 234.425 142.101 234.284 141.685L234.425 142.101C234.655 142.023 234.778 141.774 234.7 141.544C234.622 141.315 234.373 141.192 234.143 141.269H234.144L234.144 141.269L234.145 141.269L234.146 141.268C234.146 141.268 234.146 141.268 234.144 141.269C234.142 141.27 234.135 141.272 234.125 141.274C234.106 141.279 234.074 141.288 234.029 141.296C233.941 141.313 233.807 141.332 233.638 141.334C233.302 141.338 232.824 141.276 232.285 141.001C231.768 140.737 231.342 140.257 231.036 139.81C230.886 139.591 230.771 139.39 230.694 139.244C230.656 139.171 230.627 139.112 230.608 139.073C230.599 139.054 230.592 139.039 230.588 139.03L230.583 139.02L230.583 139.018C230.486 138.796 230.228 138.694 230.006 138.79Z" fill="#DB3915"/>
<path d="M239.854 134.586L234.392 125.693L236.105 136.622L239.854 134.586Z" fill="#F9E0CE"/>
<path d="M215.433 155.265L221.538 157.3V163.407L215.433 155.265Z" fill="#3F3F3F"/>
<path d="M223.787 122.8C230.299 118.858 230.971 115.959 227.75 113.158C225.286 111.015 214.04 107.908 206.864 111.551C201.985 114.027 199.794 116.586 199.794 116.586C199.794 116.586 202.044 127.729 203.329 129.55C204.614 131.372 209.645 134.081 212.541 138.122C212.541 131.372 209.842 130.708 209.756 128.907C209.649 126.658 215.647 127.729 223.787 122.8Z" fill="#744F3A"/>
<path d="M163.718 199.039C162.794 201.784 162.244 204.64 162.083 207.532L158.521 271.534L250.42 268.021L241.859 231.888C241.326 229.836 241.113 227.714 241.23 225.597L243.176 190.406C243.851 178.181 234.124 167.897 221.884 167.897H200.958L192.825 168.58C183.579 169.355 175.117 174.084 169.608 181.553L163.718 199.039Z" fill="url(#paint0_linear_3_61)"/>
<path d="M209.884 178.766C215.542 168.964 228.072 165.605 237.871 171.264L283.493 197.612C293.292 203.271 296.649 215.805 290.992 225.607C285.335 235.409 272.805 238.767 263.006 233.108L217.384 206.76C207.584 201.101 204.227 188.567 209.884 178.766Z" fill="url(#paint1_linear_3_61)"/>
<path d="M369.829 226.303L355.488 222.936L349.892 222.088C347.454 221.719 345.046 222.916 343.872 225.083L340.588 231.129C338.654 234.693 340.84 239.099 344.847 239.711L347.147 240.063H397.999C398.792 240.063 399.14 239.06 398.514 238.57C398.417 238.493 398.303 238.438 398.18 238.411L385.344 235.573C385.069 235.512 385.031 235.132 385.291 235.019L393.776 231.334C394.87 230.859 396.14 231.095 396.992 231.931L403.525 238.352C403.879 238.702 404.341 238.926 404.836 238.99C406.548 239.211 407.879 237.531 407.274 235.914L405.974 232.451L409.082 236.928C409.387 237.365 409.987 237.473 410.423 237.167C410.812 236.896 410.944 236.383 410.736 235.958L404.979 224.192C404.59 223.398 403.864 222.822 403.004 222.625L389.751 219.598C387.179 219.011 384.486 219.309 382.104 220.446L369.829 226.303Z" fill="#F9E0CE"/>
<path fill-rule="evenodd" clip-rule="evenodd" d="M346.123 240.063C346.123 239.82 346.319 239.623 346.562 239.623H395.145C395.388 239.623 395.584 239.82 395.584 240.063C395.584 240.305 395.388 240.502 395.145 240.502H346.562C346.319 240.502 346.123 240.305 346.123 240.063Z" fill="#3F3F3F"/>
<path fill-rule="evenodd" clip-rule="evenodd" d="M396.333 224.276C396.404 224.043 396.647 223.91 396.881 223.979L401.856 225.442C401.959 225.473 402.046 225.539 402.102 225.63L407.077 233.534C407.206 233.74 407.145 234.011 406.94 234.14C406.735 234.269 406.463 234.208 406.334 234.002L401.449 226.238L396.632 224.821C396.398 224.753 396.266 224.509 396.333 224.276ZM395.312 227.782C395.385 227.551 395.631 227.422 395.862 227.494L400.545 228.958C400.639 228.988 400.721 229.048 400.776 229.131L406.63 237.767C406.767 237.968 406.715 238.241 406.513 238.377C406.314 238.513 406.041 238.461 405.904 238.26L400.135 229.75L395.599 228.332C395.368 228.26 395.239 228.014 395.312 227.782Z" fill="#F7B008"/>
<path d="M260.07 214.289C262.013 202.659 273.738 195.39 285.015 198.826L362.22 222.351L344.074 239.623L278.552 237.021C266.806 236.554 258.133 225.886 260.07 214.289Z" fill="url(#paint2_linear_3_61)"/>
<path fill-rule="evenodd" clip-rule="evenodd" d="M223.297 205.976C223.447 205.786 223.724 205.754 223.913 205.905L241.766 220.104C241.956 220.255 241.988 220.531 241.837 220.721C241.686 220.911 241.41 220.942 241.22 220.791L223.367 206.593C223.177 206.442 223.146 206.165 223.297 205.976Z" fill="#3F3F3F"/>
<path d="M427.849 408.226C422.903 406.552 408.322 393.012 399.919 383.351C395.991 378.83 389.614 375.666 383.705 376.614C375.516 377.929 370.924 386.782 374.565 394.235L384.621 414.808C385.198 415.99 386.383 416.749 387.697 416.778L453.671 418.274C454.672 418.297 455.445 417.39 455.26 416.403C455.146 415.783 454.678 415.291 454.063 415.147C447.408 413.61 434.296 410.41 427.849 408.226Z" fill="#3F3F3F"/>
<path d="M288.27 286.34C294.656 270.509 315.579 267.147 326.598 280.18L421.778 392.737H372.463L293.003 310.591C286.773 304.153 284.919 294.648 288.27 286.34Z" fill="#FF9CD2"/>
<path d="M159.192 296.594C158.504 282.415 169.561 270.424 183.744 269.966L302.673 266.131C318.837 265.61 331.039 280.663 327.19 296.378C324.614 306.882 315.442 314.444 304.643 314.968L185.794 320.738C171.782 321.42 159.872 310.609 159.192 296.594Z" fill="#FF9CD2"/>
<path d="M354.309 407.205C349.67 405.75 341.15 393.946 335.423 384.554C331.873 378.734 324.986 375.08 318.284 376.313L317.854 376.392C309.937 377.844 304.856 385.637 306.717 393.468L311.582 413.962C311.959 415.545 313.373 416.664 315 416.664H380.351C381.355 416.664 382.107 415.742 381.899 414.758C381.77 414.14 381.293 413.66 380.673 413.531C373.985 412.144 360.803 409.242 354.309 407.205Z" fill="#3F3F3F"/>
<path d="M296.533 267.378C310.276 263.694 324.254 272.47 326.915 286.453L347.147 392.833H306.399L279.326 297.736C275.583 284.586 283.33 270.917 296.533 267.378Z" fill="#FF9CD2"/>
<path fill-rule="evenodd" clip-rule="evenodd" d="M324.96 285.596C325.197 285.546 325.431 285.698 325.481 285.936L341.139 360.589C341.188 360.826 341.036 361.06 340.799 361.11C340.562 361.159 340.328 361.007 340.278 360.77L324.62 286.116C324.571 285.879 324.723 285.646 324.96 285.596Z" fill="#3F3F3F"/>
<path d="M188.812 107.296L202.275 130.571L206.665 126.179L195.836 104.222C195.836 104.222 193.139 104.97 191.446 105.832C190.442 106.345 188.812 107.296 188.812 107.296Z" fill="#0096D1"/>
<path fill-rule="evenodd" clip-rule="evenodd" d="M207.886 140.233C208.046 139.775 208.548 139.535 209.005 139.696L232.273 147.893C232.73 148.055 232.97 148.556 232.809 149.013C232.648 149.471 232.147 149.711 231.689 149.55L208.422 141.353C207.965 141.192 207.725 140.69 207.886 140.233Z" fill="#0096D1"/>
<path d="M218.957 136.865C218.957 144.222 212.995 150.186 205.641 150.186C198.286 150.186 192.324 144.222 192.324 136.865C192.324 129.508 198.286 123.544 205.641 123.544C212.995 123.544 218.957 129.508 218.957 136.865Z" fill="#0096D1"/>
<path fill-rule="evenodd" clip-rule="evenodd" d="M151.803 316.034H208.703L229.184 419.647C229.278 420.121 228.969 420.584 228.493 420.677C228.017 420.771 227.555 420.464 227.461 419.987L207.261 317.79H153.238L132.455 419.992C132.358 420.467 131.895 420.774 131.419 420.677C130.944 420.581 130.637 420.118 130.734 419.641L151.803 316.034Z" fill="#FBC3DE"/>
<path fill-rule="evenodd" clip-rule="evenodd" d="M195.85 315.009H252.751L273.231 418.622C273.325 419.097 273.016 419.559 272.54 419.653C272.065 419.746 271.603 419.439 271.508 418.962L251.308 316.765H197.285L176.502 418.968C176.406 419.442 175.942 419.749 175.467 419.653C174.992 419.556 174.685 419.094 174.782 418.616L195.85 315.009Z" fill="#FBC3DE"/>
<path d="M117.158 227.572L132.888 308.65C133.293 310.735 133.879 312.81 135.062 314.573C138.77 320.094 145.023 323.499 151.81 323.499H211.348L275.297 318.668C276.597 318.428 276.467 316.525 275.146 316.464L211.348 311.789L191.681 219.4C189.667 209.939 181.313 203.175 171.643 203.175H137.27C124.389 203.175 114.704 214.924 117.158 227.572Z" fill="#FFE29D"/>
<path d="M228.03 148.575C228.03 147.363 229.013 146.38 230.225 146.38H233.445C234.657 146.38 235.64 147.363 235.64 148.575C235.64 149.788 234.657 150.771 233.445 150.771H230.225C229.013 150.771 228.03 149.788 228.03 148.575Z" fill="#0096D1"/>
<path d="M476.215 124.276C476.215 142.466 461.474 157.212 443.29 157.212C425.106 157.212 410.364 142.466 410.364 124.276C410.364 106.087 425.106 91.3409 443.29 91.3409C461.474 91.3409 476.215 106.087 476.215 124.276Z" fill="#F7B008"/>
<path d="M458.5 124.277C458.5 132.679 451.689 139.49 443.29 139.49C434.89 139.49 428.08 132.679 428.08 124.277C428.08 115.874 434.89 109.063 443.29 109.063C451.689 109.063 458.5 115.874 458.5 124.277Z" fill="white"/>
<path d="M446.231 123.607C446.731 123.607 447.144 124.017 447.03 124.501C446.866 125.187 446.515 125.82 446.009 126.327C445.289 127.048 444.311 127.453 443.29 127.453C442.271 127.453 441.294 127.048 440.574 126.327C440.067 125.82 439.716 125.187 439.552 124.501C439.435 124.017 439.851 123.607 440.348 123.607H443.29H446.231Z" fill="#F7B008"/>
<path d="M438.109 120.932C438.109 121.579 437.586 122.103 436.939 122.103C436.292 122.103 435.768 121.579 435.768 120.932C435.768 120.286 436.292 119.762 436.939 119.762C437.586 119.762 438.109 120.286 438.109 120.932Z" fill="#F7B008"/>
<path d="M451.145 120.932C451.145 121.579 450.621 122.103 449.974 122.103C449.331 122.103 448.807 121.579 448.807 120.932C448.807 120.286 449.331 119.762 449.974 119.762C450.621 119.762 451.145 120.286 451.145 120.932Z" fill="#F7B008"/>
<defs>
<linearGradient id="paint0_linear_3_61" x1="158.667" y1="139.939" x2="318.15" y2="192.45" gradientUnits="userSpaceOnUse">
<stop stop-color="#E12B8F"/>
<stop offset="1" stop-color="#0096D1"/>
</linearGradient>
<linearGradient id="paint1_linear_3_61" x1="166.715" y1="110.956" x2="294.324" y2="312.053" gradientUnits="userSpaceOnUse">
<stop stop-color="#E12B8F"/>
<stop offset="1" stop-color="#0096D1"/>
</linearGradient>
<linearGradient id="paint2_linear_3_61" x1="129.839" y1="72.0188" x2="388.297" y2="301.108" gradientUnits="userSpaceOnUse">
<stop stop-color="#E12B8F"/>
<stop offset="1" stop-color="#0096D1"/>
</linearGradient>
</defs>
</svg>
