<svg width="105" height="105" viewBox="0 0 105 105" fill="none" xmlns="http://www.w3.org/2000/svg">
<circle cx="52.5" cy="52.5" r="52.5" fill="#F7B008"/>
<path d="M63.35 27H41.65C39.0828 27 37 29.1416 37 31.7812V73.2188C37 75.8584 39.0828 78 41.65 78H63.35C65.9172 78 68 75.8584 68 73.2188V31.7812C68 29.1416 65.9172 27 63.35 27ZM52.5 74.8125C50.7853 74.8125 49.4 73.3881 49.4 71.625C49.4 69.8619 50.7853 68.4375 52.5 68.4375C54.2147 68.4375 55.6 69.8619 55.6 71.625C55.6 73.3881 54.2147 74.8125 52.5 74.8125ZM63.35 64.0547C63.35 64.7121 62.8269 65.25 62.1875 65.25H42.8125C42.1731 65.25 41.65 64.7121 41.65 64.0547V32.9766C41.65 32.3191 42.1731 31.7812 42.8125 31.7812H62.1875C62.8269 31.7812 63.35 32.3191 63.35 32.9766V64.0547Z" fill="white"/>
</svg>
