<svg width="99" height="99" viewBox="0 0 99 99" fill="none" xmlns="http://www.w3.org/2000/svg">
<circle cx="49.5" cy="49.5" r="49.5" fill="#E12B8F"/>
<path d="M75.6 63.5625H54.3848C54.32 65.3036 53.0976 66.375 51.52 66.375H46.2C44.5646 66.375 43.3107 64.8396 43.3326 63.5625H22.4C21.63 63.5625 21 64.1953 21 64.9688V66.375C21 69.4688 23.52 72 26.6 72H71.4C74.48 72 77 69.4688 77 66.375V64.9688C77 64.1953 76.37 63.5625 75.6 63.5625ZM71.4 31.2188C71.4 28.8984 69.51 27 67.2 27H30.8C28.49 27 26.6 28.8984 26.6 31.2188V60.75H71.4V31.2188ZM65.8 55.125H32.2V32.625H65.8V55.125Z" fill="white"/>
</svg>
