<svg width="30" height="41" viewBox="0 0 30 41" fill="none" xmlns="http://www.w3.org/2000/svg">
<path d="M7.34518 2.21368C7.53734 0.560992 9.5146 -0.185512 10.7511 0.927814L18.3998 7.81229C18.6678 8.05335 18.9942 8.21934 19.3466 8.29401L28.0156 10.1287C29.4782 10.4384 30.1281 12.1597 29.2351 13.3588L24.0718 20.29C23.7758 20.687 23.6339 21.1779 23.6717 21.6715L24.9322 38.0741C25.0891 40.1165 22.4838 41.1001 21.2518 39.4636L11.3576 26.3206C11.0598 25.9252 10.6289 25.6506 10.1443 25.5483L1.689 23.7586C0.225951 23.4491 -0.423906 21.7278 0.469509 20.5285L5.76256 13.4226C5.97803 13.1335 6.11329 12.7932 6.15472 12.4354L7.34518 2.21368Z" fill="#F7B008"/>
</svg>
